<svg width="2016" height="508" viewBox="0 0 2016 508" fill="none" xmlns="http://www.w3.org/2000/svg">
<g clip-path="url(#clip0_499_194)">
<path d="M2030 340V577.6H-16V340H2030Z" fill="url(#paint0_linear_499_194)"/>
<g filter="url(#filter0_f_499_194)">
<path d="M1889.7 423.3C1825.5 422.2 1761.2 417.9 1696.8 416.2C1667.8 415.4 1638.2 412.4 1609.4 412.9C1560.4 413.9 1511.3 412.1 1462.4 411.2C1446.2 411 1430 410.1 1413.9 410.7C1389.9 411.4 1365.9 410 1341.7 409.6C1314.8 409.3 1287.3 406.8 1260.9 407.6C1214.8 409.2 1168.6 407.9 1122.6 407.9C1102.8 407.9 1082.5 407 1062.9 407C989.4 407.3 915.6 408.1 842.2 409.4C808.3 410.1 773.8 407.5 741.3 412.2C741.4 412.2 741.4 412.2 741.5 412.2C752.2 412.9 763.1 413.5 773.7 414.3C773.8 414.2 774 414.2 774.1 414.1C778.4 414.3 782.5 414.5 786.8 414.8C787 414.8 787.3 414.8 787.5 414.8C802.3 411.4 819.5 413.2 835.5 412.4C855.5 411.5 876.2 411.6 896.7 412C912.5 412.2 928.7 411.7 944.7 411.6C947.9 411.5 950.7 411.8 953.3 412.7C953.5 412.7 953.7 412.7 953.9 412.7C955 412.8 955.9 412.8 957.1 412.9C957.8 412.8 958.4 412.8 959.1 412.7C968.9 411.4 979.1 413.2 989.3 413.4C989.5 413.4 989.8 413.4 990 413.3C990.1 413.3 990.1 413.3 990.2 413.3C1009.1 408.8 1031.1 410 1051.1 410.6C1081 411.5 1110.5 409.5 1140.2 411.8C1140.4 411.8 1140.7 411.8 1140.9 411.7C1142.9 411.8 1145 411.9 1147 411.9C1148.5 411.8 1150.1 411.8 1151.6 411.7C1161.6 411 1171.6 410.9 1181.7 412.5C1182.2 412.5 1182.6 412.5 1183 412.5C1184.1 412.6 1185.3 412.6 1186.2 412.7C1186.6 412.7 1187.1 412.7 1187.4 412.6C1211 407.2 1236.2 412.2 1260.8 412.8C1261.1 412.7 1261.4 412.7 1261.7 412.7C1292.1 412.9 1322.1 414.6 1352.5 416.4C1353.3 416.4 1354 416.4 1354.9 416.4C1383.5 413.8 1413 414.7 1442.1 416.2C1495 418.9 1547.6 417.2 1600.2 419.7C1628.3 421 1656.5 422.8 1684.3 422.7C1768.6 422.2 1852.3 430.7 1936.5 433C1973.6 434 2010.6 435.8 2047.6 438.3V432.8C2021.9 432.1 1996.6 429.8 1971 429C1943.8 427.9 1917.5 424 1889.7 423.3Z" fill="#1B82CE"/>
<path d="M185.6 437.4C214.3 436.2 242 432.4 270.9 432.3C278.7 432.3 286.5 432.6 294.4 432.7C321 431.7 347 429.9 373.6 429C398.1 428.2 423.4 427.9 447.9 425.8C458.5 424.9 469.3 425.1 480 425C507.2 424.5 534.7 423.9 561.1 422.2C609 419.1 657.7 420 705.2 416.9C722.2 415.8 740.8 418.9 758.3 417.1C763.7 416.6 769.8 416.7 773.7 414.6C763 413.9 752.1 413.3 741.5 412.5C741.4 412.5 741.4 412.5 741.3 412.5C721.2 410.3 702.3 414.5 682.3 413.6C646 412.1 609.8 413.6 574.8 415.6C545.4 417.3 515.6 416.3 486.1 418.4C439.6 421.9 391.8 423 344.2 424.1C322 424.6 301.3 428 278.8 427.2C252.9 426.1 228.8 429.9 202.9 430.3C174.6 430.7 146.2 433.5 117.5 434.8C96.2002 435.7 74.7002 436.4 54.0002 438.4C25.5002 441 -3.49981 441.9 -32.2998 443.2V449.8C6.7002 447.4 45.6002 445.3 84.4002 442.4C117.8 439.6 151.6 439 185.6 437.4Z" fill="#2B79ED"/>
<path d="M990 413.4C989.9 413.4 989.9 413.4 989.8 413.4C989.6 413.4 989.3 413.4 989.1 413.5C989.2 413.5 989.4 413.5 989.5 413.5C989.7 413.5 989.8 413.5 990 413.4Z" fill="#00224C"/>
<path d="M758.3 417C740.7 418.9 722.2 415.7 705.2 416.8C657.5 419.9 608.9 419.1 561.1 422.1C534.6 423.8 507.2 424.4 480 424.9C469.3 425.1 458.5 424.9 447.9 425.7C423.5 427.8 398.1 428.1 373.6 428.9C347 429.8 321 431.6 294.4 432.6C294.6 432.6 294.9 432.6 295.1 432.6C295 433 295 433.6 294.9 434.1C317.2 434.2 339.3 434.2 361.7 432.9C388.6 431.3 416 431.2 443 430.3C484.9 428.8 526.8 426.4 569.1 425.8C606.5 425.5 642.5 420.5 681 423.2C692.4 424 704.5 421.7 716.9 423C716.9 423 717 423 717 422.9C744.1 424.9 770.7 424.1 797.2 422.1C804.2 421.7 811.5 422.5 818.6 422.9C862.9 423 906.5 419.7 950.8 421.7C960.7 422 969.1 419.3 979 420.2H979.1C979 420.2 978.9 420.2 978.8 420.2C1004.5 417.1 1031.6 417.7 1058 417.7C1078.3 417.7 1098.9 417.6 1119.5 419.4L1119.7 419.5C1119.9 419.5 1120 419.6 1120.2 419.6V419.5C1122.6 417.5 1126.3 417.1 1130.9 417.3C1180 419.3 1228.5 417.8 1277.3 418.4C1278.8 418.4 1281.1 418.6 1283.4 418.7C1283.5 418.6 1283.6 418.6 1283.7 418.5C1307 420.5 1330 420 1353.3 420.9C1359.6 421.2 1365.7 420.2 1371.6 419.2C1365.7 416.9 1358.8 417.1 1352.3 416.6C1353.1 416.5 1353.9 416.5 1354.9 416.4C1354.1 416.4 1353.4 416.4 1352.5 416.4C1322.1 414.4 1292.1 413 1261.7 412.7C1261.4 412.8 1261.1 412.8 1260.9 412.8C1261.1 412.8 1261.3 412.8 1261.5 412.8C1258.1 414.4 1253.6 415.1 1248.7 414.9C1227.7 414.2 1207.1 413.4 1186.2 412.8C1186.6 412.7 1187 412.6 1187.4 412.6C1187 412.6 1186.6 412.6 1186.2 412.7C1185.3 412.7 1184.2 412.6 1183 412.5C1182.5 412.5 1182.2 412.5 1181.7 412.5C1182.1 412.6 1182.4 412.6 1182.7 412.6C1170.8 414.3 1158.8 412.4 1146.8 412.1C1148.4 412 1150 411.9 1151.6 411.8C1150.1 411.8 1148.5 411.9 1147 412C1145 412 1142.9 411.9 1140.9 411.8C1140.7 411.8 1140.4 411.8 1140.2 411.9C1140.4 411.9 1140.5 411.9 1140.7 411.9C1132.8 416.5 1121.3 413.9 1112 413.6C1071.1 412.7 1030.8 415.5 990 413.5C979.3 415.5 968.1 413.3 957.2 413.1C958 413 958.7 412.9 959.5 412.8C958.8 412.9 958.2 412.9 957.5 413C956.4 412.9 955.5 412.9 954.3 412.8C954.1 412.8 953.9 412.8 953.7 412.8C953.9 412.9 954.1 412.9 954.3 413C951.5 415.3 946.7 415.3 941.7 415.2C901.9 414.5 862.3 415.1 822.6 416.2C810.7 416.6 799 415.8 786.9 415.1C787.2 415 787.5 415 787.8 414.9C787.6 414.9 787.3 414.9 787.1 414.9C782.7 414.8 778.7 414.6 774.4 414.2C774.3 414.3 774.1 414.3 774 414.4C769.7 416.5 763.6 416.4 758.3 417Z" fill="#00224C"/>
<path d="M1683.9 422.7C1656.1 422.9 1628 421.1 1599.8 419.7C1547.1 417.2 1494.6 418.9 1441.7 416.2C1412.7 414.9 1383.1 413.8 1354.5 416.4C1353.7 416.5 1352.9 416.5 1351.9 416.6C1358.4 417.1 1365.3 416.9 1371.2 419.2C1412.9 421.8 1454.6 422.5 1495.8 422.7C1549.6 423.1 1603.5 426.4 1657.1 426.4C1691.3 426.4 1724.9 428.1 1758.8 429.8C1758.9 429.8 1759 429.9 1759.1 429.9C1803.3 429.9 1847.5 433.4 1891.7 434.9C1931 436.1 1970.7 440.7 2009.5 441.2C2022.1 441.3 2034.8 441.7 2047.2 442.2V437.7C2010.2 435.3 1973.3 433.6 1936.1 432.4C1852 430.7 1768.2 422.1 1683.9 422.7Z" fill="#001A41"/>
<path d="M822.2 416.2C861.8 415.1 901.4 414.5 941.3 415.2C946.3 415.3 951 415.3 953.9 413C953.7 412.9 953.5 412.9 953.3 412.8C950.6 411.9 947.9 411.6 944.7 411.7C928.7 411.8 912.5 412.4 896.7 412.1C876.2 411.8 855.5 411.7 835.5 412.5C819.5 413.3 802.4 411.5 787.5 414.9C787.2 415 786.9 415 786.6 415.1C798.6 415.8 810.3 416.7 822.2 416.2Z" fill="#000B29"/>
<path d="M1111.6 413.6C1121 413.8 1132.5 416.4 1140.3 411.9C1140.1 411.9 1140 411.9 1139.8 411.9C1110.1 409.5 1080.6 411.6 1050.7 410.7C1030.9 410.2 1008.8 409.1 989.8 413.4C989.7 413.4 989.5 413.5 989.4 413.5C1030.4 415.4 1070.6 412.7 1111.6 413.6Z" fill="#000B29"/>
<path d="M1248.3 415.2C1253.3 415.4 1257.7 414.8 1261.1 413.1C1260.9 413.1 1260.7 413.1 1260.5 413.1C1235.9 412.4 1210.8 407.5 1187.1 412.9C1186.7 413 1186.2 413.1 1185.9 413.1C1206.8 413.7 1227.4 414.4 1248.3 415.2Z" fill="#000B29"/>
<path d="M1182.4 412.9C1182 412.8 1181.7 412.8 1181.4 412.8C1171.4 411.2 1161.4 411.3 1151.3 412C1149.7 412.1 1148.1 412.2 1146.5 412.3C1158.5 412.7 1170.5 414.6 1182.4 412.9Z" fill="#000B29"/>
<path d="M989.5 413.5C989.4 413.5 989.2 413.5 989.1 413.5C979.1 413.3 969 411.4 958.9 412.8C958.1 412.9 957.4 413 956.6 413.1C967.7 413.4 978.8 415.4 989.5 413.5Z" fill="#000B29"/>
<path d="M-23.8 547.4C-23.7 547.4 -23.5 547.4 -23.4 547.5C-21.3 547.2 -19.3 546.8 -17.3 546.5C-17.2 546.5 -17.1 546.5 -17 546.4C-9.1 538.3 0.6 546.2 9.5 546.5C8.9 546.6 8.3 546.7 7.6 546.8C8.2 546.8 8.6 546.7 9.2 546.6C10.3 546.7 11.2 546.6 12.4 546.7C12.5 546.7 12.7 546.7 12.8 546.6C12.7 546.6 12.5 546.6 12.4 546.6C16.9 543 25.2 543.4 32.7 543.3C32.5 543.4 32.3 543.4 32.1 543.5C32.3 543.5 32.5 543.5 32.6 543.4C45.3 544.2 56.3 543 67.2 540.2C75.7 538 84.9 535.8 95.5 536.5C101.2 534.6 106.9 532.9 104.2 528.7C100.3 522.9 107.9 518.7 112.8 514.5C116.9 510.8 125.3 513.3 131.6 513.2C136.1 513.1 143.1 514.2 143.7 511.3C144.3 508.7 137.4 509.3 133.6 508.6C114.7 504.8 98.7 509.7 83 511.8C68.9 513.7 63 511.5 59 506.8C52.9 499.7 46.4 501 35.8 504.1C24 507.4 11.4 509.8 14.9 518.1C15.5 519.3 14.8 520.8 17.5 521.5C21.5 522.4 23.9 521 25.1 519.6C28.4 515.1 33.6 515 42 517.6C47 519.2 52.3 517.4 57.3 516.9C67.2 516 75.4 516.9 80.7 521.7C82.1 522.9 85.6 524.3 81.8 525.4C78.9 526.3 75.2 525.9 73 524.7C64.5 519.2 58.8 522.8 50.4 524.5C31.8 527.9 10.9 528.8 -10.3 529.9C-5.4 524.9 -9.9 519.3 0.799999 515.3C6.5 513.2 -3.4 510.2 -10 510C-17.5 509.8 -24.9 510 -32.5 510.2V547.4C-29.7 547.3 -26.8 547.3 -23.8 547.4Z" fill="#3E4E62"/>
<path d="M18.6999 481.9C18.3999 480.4 22.0999 478.3 25.0999 477.1C29.5999 475.4 34.3999 475.6 34.4999 479.3C34.6999 481.7 30.7999 485 38.7999 485.5C46.8999 486 57.5999 487.9 62.6999 483.9C69.7999 478.4 76.9999 475.4 93.1999 476.7C100.5 477.2 109.5 474.3 118.3 473.5C124.4 473 121.8 469.4 120 466.9C118.1 464.1 113.9 462.2 107.6 463.5C93.5999 466.3 78.8999 466.6 63.6999 465.9C58.6999 465.6 52.2999 467.6 48.9999 464.7C46.2999 462.2 53.3999 461.3 55.4999 459.4C47.9999 458.9 42.3999 461.1 35.6999 461.3C26.1999 464.5 16.2999 465 4.1999 463C-8.8001 460.8 -21.8001 460.5 -32.6001 463.7V497.4C-24.8001 496.5 -17.1001 495.4 -9.1001 494.7C6.1999 493 20.6999 491.6 18.6999 481.9ZM54.8999 476.7C56.9999 476.5 59.5999 476.9 59.6999 478.2C59.5999 480.8 54.7999 481.5 50.4999 482.1C47.7999 482.1 45.2999 481.7 45.1999 480.6C45.1999 477.8 50.4999 477.4 54.8999 476.7Z" fill="#124A70"/>
<path d="M4.7999 451.7C4.7999 451.7 4.7999 451.8 4.7999 451.7C20.0999 450.7 35.4999 449.5 50.7999 448.4C50.6999 448.4 50.5999 448.4 50.5999 448.4C58.9999 446.7 66.9999 444.7 76.9999 445.4C77.0999 445.4 77.0999 445.4 77.1999 445.4C100.7 447.7 121.7 441.9 144.8 442.6C155 443 165.2 442.3 175.3 442.2C175.5 442.2 175.7 442.2 175.9 442.1C175.8 442.1 175.7 442.1 175.5 442.1C182.4 439.8 190.1 438.7 198.7 439C198.6 439 198.5 439.1 198.4 439.1C207.2 439.8 215.9 439.8 224.7 439.1C224.8 439.1 225 439.1 225.2 439C225.1 439 225.1 439 225 439C233.5 434.9 244.5 437.8 254.6 437.8C260.8 436.8 267.2 435.5 274.4 435.9C274.5 435.9 274.6 435.9 274.7 435.8C274.6 435.8 274.5 435.8 274.4 435.8C279.5 432.8 287 433.7 294.2 433.9C294.1 434 293.9 434 293.8 434.1C293.9 434.1 294.1 434.1 294.2 434C294.4 434 294.7 434 294.9 434C295 433.6 295 433 295.1 432.5C294.9 432.5 294.6 432.5 294.4 432.5C286.6 432.3 278.8 432 270.9 432.1C242 432.2 214.3 435.9 185.6 437.2C151.6 438.8 117.8 439.5 84.0999 442.1C45.3999 445.1 6.3999 447.1 -32.6001 449.5V453.8C-27.6001 453.4 -22.7001 452.8 -17.8001 452.2C-10.7001 451.3 -2.7001 451.9 4.7999 451.7Z" fill="#124A70"/>
<path d="M2028.3 492.8C2020.5 490.8 2012.1 490 2003.5 489.6C2003.5 489.6 2003.4 489.6 2003.4 489.5C1999.6 490.8 1995.3 491.5 1990.2 490.7C1951.3 485.8 1912.3 486.4 1873.2 486.3C1873.1 486.3 1873.1 486.2 1873 486.2C1865.9 488.2 1858.2 488.4 1850 487.9C1849.4 487.9 1849 488 1848.4 488C1849 488 1849.6 488 1850.2 488C1842.8 490.1 1835.7 492.6 1827.4 488.2C1827.5 488.2 1827.5 488.2 1827.6 488.2C1827.5 488.2 1827.3 488.1 1827.2 488.1C1821.5 487.8 1815.8 487.2 1810.6 488.6C1810.7 488.6 1810.8 488.6 1810.9 488.6C1811.3 490.8 1811.1 492.5 1805.3 493.1C1799.3 493.5 1798.4 495.3 1799.9 498C1804.1 505.2 1790.7 503.9 1783.2 504.3C1775.8 504.6 1764.8 506 1765.1 499C1765.4 495.1 1760.5 495.3 1754.5 496.3C1738.6 499 1723.6 498.7 1710.2 491.9C1704.2 488.8 1669.3 488.7 1661.9 491.2C1657.2 492.8 1659.6 494.3 1663.7 495.1C1680.6 498.7 1696.9 503.2 1715.9 503.1C1725.5 503.1 1735.9 502.3 1739.9 508.5C1749 504.8 1760.6 507.5 1770.8 507.4C1788.9 507.2 1806.3 504.8 1824.6 506.1C1824.7 506 1824.7 506 1824.8 505.9C1825 505.9 1825.2 505.9 1825.4 505.9C1830.4 505.2 1835.2 503.9 1840.1 504C1864.3 505 1884.9 499.6 1907.1 497.4C1917.4 496.4 1924.7 491.7 1937 491.8C1946.2 491.7 1954.1 492 1960.3 495.7C1960.1 495.7 1959.9 495.7 1959.7 495.7C1959.8 495.7 1959.9 495.7 1960.1 495.8C1972.6 496.3 1984.9 496.9 1997.3 497.5C1997.8 497.5 1998.4 497.5 1998.9 497.5C2004.3 497.7 2044.2 511.8 2046.3 514C2049.1 517.1 2046.2 518.5 2040.2 518.3C2025.1 517.5 2010.9 520.8 1995.4 519.2C1989.3 518.5 1980.8 518.7 1976.6 520.1C1961.4 525.9 1943.4 521.2 1927 522.1C1923.1 522.3 1917.1 521.7 1914.9 520.2C1898.7 510.2 1875.2 512.4 1854.2 510.6C1854 510.6 1853.7 510.6 1853.5 510.6C1853.6 510.6 1853.6 510.7 1853.7 510.7C1853.4 510.9 1852.9 511 1852.8 511.2C1848.5 514.3 1836.4 516.3 1841.2 520.4C1845.9 524.3 1855.8 520.8 1863.3 520.7C1877.7 520.5 1889.7 525.7 1903.7 526.4C1904.8 526.5 1907.2 527.7 1906.9 528C1900.6 534.8 1916.5 536.8 1921.5 541.2C1921.7 541.2 1922 541.3 1922.2 541.3C1926.6 541.5 1930.8 541.7 1935.2 542.1C1935.2 542.2 1935.1 542.2 1935.1 542.3H1935.2C1937.6 542.4 1939.6 542.5 1941.7 542.6C1941.8 542.6 1941.9 542.5 1942 542.5C1945.5 538 1945.2 531.7 1962.5 534.7C1962.3 534.7 1962 534.7 1961.8 534.8C1962 534.8 1962.1 534.8 1962.2 534.8C1968.7 535.1 1975.2 535.6 1981.7 535.9C1989.2 536.6 1995.6 535.6 2001.7 534C2002.3 534.1 2002.8 534.1 2003.4 534.2C2018 531.9 2033.7 532.5 2047.4 535.3V494.4C2041.1 495.3 2034.3 494.4 2028.3 492.8Z" fill="#152E46"/>
<path d="M1233.3 506C1233.4 506 1233.4 506.1 1233.5 506.1C1233.4 506 1233.4 506 1233.3 506Z" fill="#374256"/>
<path d="M1470.9 590.9C1483.3 592.5 1492.9 591.8 1502.6 589C1512.9 586.2 1522.4 583.4 1512.5 576.3C1508.7 573.6 1509.5 570.6 1519.7 572.4C1519.8 572.4 1519.8 572.4 1519.9 572.5C1527.5 572.5 1534.9 572.4 1542.3 572.4C1542.3 572.4 1542.3 572.4 1542.4 572.4C1542.5 572.4 1542.5 572.3 1542.6 572.3C1553.3 568.5 1566 568.9 1578.9 570H1579C1585.9 566.9 1588.4 563 1590 558.7C1590 558.7 1590 558.7 1590.1 558.7C1590 558.7 1589.9 558.7 1589.8 558.7C1573.2 558.5 1560.1 562.8 1545.3 564.8C1533 566.5 1520.5 567.4 1508.1 568.3C1500.9 568.7 1492 568.8 1487.2 565.2C1482.2 561.4 1486.1 557.9 1491.2 554.9C1501.4 549.1 1512.4 543.6 1526.6 539.8C1527 539.7 1527.4 539.6 1527.7 539.5C1527.3 539.5 1526.9 539.4 1526.4 539.4C1517.5 539 1509.4 540.4 1504.9 543C1496.5 548.1 1484.8 551.2 1475.5 555.8C1466.3 560.4 1456.1 561.5 1442.6 558.2C1431.3 555.4 1416.5 555.2 1412.6 547.6C1411.6 545.3 1408.6 542.5 1413.1 541.4C1425.4 538.3 1425.4 532.2 1429.9 527.2C1434.6 521.9 1444.7 519.3 1455.7 517.3C1459.7 516.5 1464.8 516.2 1462.3 513.5C1460.6 511.2 1456 511.8 1452.5 512.4C1446.8 513.2 1441.2 513.4 1435.4 512.9C1435.3 513 1435.2 513 1435.1 513.1C1418.9 516.7 1400.6 515.3 1383.4 515.9C1373.6 516.3 1367 509.7 1356.6 512.7H1356.5C1362.1 513.9 1362.1 515.8 1359.4 517.8C1338.6 520 1318.6 523.2 1295.9 517.4C1283.9 514.3 1269.1 513.8 1254.8 514C1244.8 514.1 1232.7 513.7 1229.4 507C1227.8 507.4 1225.6 508 1224.2 508.6C1208.7 515 1198.1 513.4 1190 502.8C1199.2 503.8 1206.6 503 1213.4 500.3C1217.9 498.3 1225.3 498.4 1231.8 499.1C1235.7 499.4 1239.5 500.3 1240.5 502.3C1241.8 504.7 1236.3 504.6 1233.7 505.6C1233.6 505.6 1233.5 505.6 1233.5 505.7C1233.6 505.7 1233.6 505.7 1233.7 505.7L1233.3 505.9C1241.1 505.9 1248.4 505.8 1256 505.7C1255.9 505.7 1255.8 505.8 1255.7 505.8C1255.8 505.8 1255.9 505.8 1256 505.8C1258.1 506.8 1260.3 507.9 1262.2 509C1262.3 509 1262.5 509 1262.6 509C1262.5 509 1262.5 508.9 1262.4 508.9C1263.4 497.8 1263.2 497.7 1287.2 497C1292.9 496.9 1298.2 496.7 1299 493.6C1299.8 490.6 1295.7 488.9 1290.6 487.7C1285 486.2 1279.3 484.7 1273.7 483.2C1273 483.1 1272.5 483 1271.8 483C1271 482.9 1269.8 482.8 1268.9 482.8C1267.2 484.1 1265.1 485.5 1261 484.4C1256.4 483.1 1258.9 481.2 1259.5 479.5C1259.4 479.5 1259.4 479.5 1259.3 479.4C1242.6 478.1 1225.6 478.4 1209.4 475.3C1206 474.8 1201.9 474.3 1200.5 475.6C1193.1 481.4 1181.2 478.9 1170.2 478.6C1155 478.2 1139.8 477.3 1130 484.2C1126 487 1118.4 487.9 1111.2 486.9C1096.3 484.7 1080.9 485.9 1066.1 484.5C1066 484.5 1065.8 484.6 1065.7 484.6C1060.7 489.9 1049.7 487.3 1040.8 487.2C1035.3 487.3 1029.5 486.7 1023.9 486.2C1023.6 486.3 1023.3 486.3 1023.1 486.4C1019.4 486.7 1017 486.5 1015.2 486.1C996.4 486 977.5 483.9 958.5 484.8C948.2 485.3 951.4 479.5 946.1 477.1C946 477.1 945.8 477.2 945.7 477.2C940.1 476.9 934.7 476.9 929.6 477.7C929.5 478.5 929.4 479.4 929.1 480.2C928.9 480.2 928.7 480.2 928.6 480.2C928.7 480.2 928.8 480.3 928.9 480.3C935.5 489.7 925.4 495.9 901.4 497C901.3 497 901.3 497 901.2 497C901.3 497 901.3 497.1 901.4 497.1C893.6 497.1 885.9 497.2 878.1 497.2C878 497.2 877.9 497.2 877.8 497.2C868.6 498.7 859.3 497.1 850.2 496.7C845.9 496.5 839.3 496.8 839.4 493.6C839.2 491 844.5 490.5 849.7 490.9C850.5 490.9 851.5 490.9 852.4 490.9C857.1 487.7 869.1 488.2 870.2 483.2C867.2 482.5 865 481.5 864.2 480.1C864 480.1 863.9 480.1 863.7 480C857.8 479.8 855.6 481 852.1 483.3C847.7 486.3 839.4 489.9 830.4 484.1C830.4 484 830.4 483.9 830.4 483.8C830.3 483.8 830.3 483.9 830.2 483.9C814.6 488.3 796 486.3 778.5 486.7C778.7 493.1 788 495.5 799.5 496.9C803.6 497.4 809.2 497.4 809.3 500.1C809.7 502.8 804.3 503.6 799.5 503.8C789.7 504.5 777.6 503.9 788.6 511.4C790.7 513 788.4 514.9 785.2 514.7C766.2 513.5 750.4 519.3 731.9 518.2C723.3 517.8 713.5 517.8 723.3 512C727.5 509.5 724.7 507.4 717.5 508.5C706.4 510.4 695.2 508.4 683.7 508.1C673.5 507.8 667.6 504.7 666.4 500.2C664.9 495.6 671.3 493.6 679.3 492.2C687.4 490.9 696 489.6 702.4 494.1C706.5 496.8 709.3 500 716.9 496.7C722.9 494.1 720.8 491.2 715.1 488.9C709.2 486.4 705.1 481.2 693.9 484.5C690.3 485.5 688 484 686.3 482.4C682.4 478.6 676.4 477.5 667.8 477.6C659.6 477.6 653.7 477.2 650.8 482.2C647.9 487.7 638.1 488.9 623.9 487.5C601.4 485.1 578 483.8 555.1 483.1C540.5 482.8 525.8 477.8 511.2 482C508.1 482.9 505.4 480.9 507.4 479.2C509.8 477.2 513.1 475.6 517.9 475.3C548 472.5 578 470 609.7 470.7C609.8 470.7 609.9 470.7 610.1 470.7C617.4 467.1 614.6 464.6 604.2 463C582.3 462.3 562 466.4 539.6 464.7C529 463.9 518.1 464.6 507.4 463.6C503.1 463.3 497.9 462.7 494.6 463.6C467.7 469.6 437.9 468.5 408.5 468.7C402.6 468.7 400.5 469 399 465C396.5 458.4 382.1 461.6 373.1 460C372.7 460.1 372.3 460.2 372 460.3C366.5 462.3 358.7 462.4 354 465.3C360.4 468 368.9 466.1 376.4 468.5C355.7 474.4 333.3 476.6 309 475.7C309 475.7 309 475.7 308.9 475.7C297.1 480.8 283.4 483 266.4 480.1C264.4 479.8 261.9 479.6 260.1 479.8C213.7 486.4 163.9 485.2 116 488.8C111.7 489.1 106.5 488 101.8 487.6C101.7 487.6 101.6 487.6 101.4 487.7C101.6 487.7 101.8 487.7 102 487.7C96.2999 491 85.8999 492.4 82.9999 497.4C82.1999 498.9 77.9999 499.5 74.7999 499C55.7999 496 37.4999 498.9 18.5999 498.9C18.5999 498.8 18.6999 498.8 18.6999 498.7C18.5999 498.7 18.4999 498.8 18.3999 498.8C8.8999 499.7 -0.800099 499.6 -10.5001 498.8C-16.3001 503.1 -22.6001 507 -32.1001 509.3V510.3C-24.5001 510.1 -17.1001 510 -9.6001 510.1C-3.1001 510.3 6.8999 513.3 1.1999 515.4C-9.5001 519.2 -4.9001 524.9 -9.9001 530C11.2999 528.9 32.0999 528 50.7999 524.6C59.1999 523 64.8999 519.3 73.3999 524.8C75.4999 526.1 79.3999 526.5 82.1999 525.5C85.9999 524.4 82.4999 523 81.0999 521.8C75.7999 517 67.6999 516.1 57.6999 517C52.5999 517.4 47.3999 519.3 42.3999 517.7C33.9999 515.1 28.7999 515.2 25.4999 519.7C24.4999 520.9 21.9999 522.4 17.8999 521.6C15.1999 520.9 15.8999 519.4 15.2999 518.2C11.6999 509.9 24.2999 507.6 36.1999 504.2C46.7999 501.1 53.0999 499.9 59.3999 506.9C63.3999 511.6 69.1999 513.7 83.3999 511.9C99.1999 509.8 115.1 504.8 134 508.7C137.8 509.5 144.7 508.8 144.1 511.4C143.5 514.2 136.5 513.1 132 513.3C125.7 513.4 117.3 511 113.2 514.6C108.4 519 100.7 523 104.6 528.8C107.3 532.7 101.6 534.7 95.8999 536.6C111.8 545 121.1 546.1 141.2 541.1C154.3 537.7 167.2 540.3 180.3 541.8L180.2 541.7C210.5 540.4 241.3 540.4 269.1 534.6C256.1 528.2 237.7 528.5 222.4 524.6C218.8 523.8 212.4 524.7 212.8 521.8C213.1 519.3 218.5 518 223 518.2C232.7 518.7 243.9 517.8 251 522.6C256.1 525.8 258.6 524.3 261.3 522.2C267.6 516.6 278.6 514.6 292 515.6C302.4 516.3 311.7 514.7 319.3 512.5C333 508.4 347.9 508.4 363.7 509.4C366.9 509.6 371.5 509.4 373.2 510.2C389.7 518.5 402.5 511.5 415.5 509.1C421.3 508 426.9 506.9 433.4 506.7C438 506.5 442.5 506.9 443.8 509.4C445 511.9 441.4 513.2 437.2 513.5C422.8 513.8 412.1 520.3 395.4 517.6C390 516.8 385.7 518.9 382.6 521.1C379.1 523.7 373.9 525.4 367.7 526.1C358 527.2 347.2 527.4 348 534.2C348.3 535.9 343.2 536.5 339.5 536.9C331.1 538 322.8 539.5 314.5 540.7C313.3 547.1 307.4 547.4 298 542.8C297.9 542.8 297.8 542.8 297.7 542.8C296.6 542.7 295.7 542.8 294.5 542.7C294.4 542.7 294.3 542.7 294.1 542.8C294.3 542.8 294.5 542.8 294.7 542.8C289.5 546.1 282.2 545.6 274.8 544.4C274.9 544.3 275.1 544.3 275.2 544.2C275 544.2 274.8 544.3 274.6 544.3C258.5 543.5 249.7 550.4 234.9 551C233.1 554.5 236.6 554.9 243.6 554.7C256.5 554.4 268.4 552.2 281.1 551.6C298.2 550.9 315 554.6 331.8 553.5C331.9 553.4 332.1 553.3 332.2 553.3C337.8 550.7 343.8 549.9 350.5 552.9C353.8 554.2 358.3 555.7 359.1 553.3C360.5 548.6 376.8 548.9 373.1 542.7C372 540.7 379.1 540 384.2 539.7C389.5 539.5 394.7 539.3 400.1 538.8C402.9 538.6 404.8 537.7 404.1 536.2C403.3 534.6 400.6 534.5 397.8 534.5C392.3 534.7 386.9 536.5 380.6 533.6C388.9 528.8 400.3 527.6 412.9 528C426.3 528.4 439.9 528.9 453.3 529.9C460.6 530.4 465.9 529.9 469.8 527.2C476.9 522.1 487.1 521.6 499.2 524.2C499.5 524.3 499.9 524.4 500.1 524.6C520.9 523.7 542.6 528.3 562.8 524.1C566.8 523.2 569.8 525 570.7 526.9C573.2 533.4 581.6 532.8 591.2 531.3C596.6 530.4 601.9 529.7 610.8 531.7C589.8 539.3 565.1 540 543.2 543.8C542.8 543.9 542.5 543.9 542.2 544C539.2 548.9 546.7 549.8 554.5 549.3C560.5 549 565.6 547.6 571.3 549.5C571.8 549.4 572.2 549.4 572.6 549.3C581.6 542.9 597.4 542 611.8 542.3C633 542.8 653.7 543.2 673.8 540.7C679.4 540 685.5 539.8 691.3 541.2C695.3 542.2 699.2 543.7 699.6 545.8C699.9 549 693.3 547.3 690.2 548.1C671.9 552.8 649.5 550.5 630.4 554.2C617.4 556.8 602 555.1 587.5 553.9C587 553.8 586.6 553.7 586.1 553.6C570.3 552.9 556.5 554.4 546.9 560.3C547.1 560.4 547.2 560.5 547.4 560.6H547.5C555.2 561.6 566.7 559.7 569.2 563.7C571.6 567.3 559.7 568.8 554.6 571.3C548.6 574.1 533.2 576.4 541.8 580.9C551.4 585.9 555.8 578.3 562.9 576.2C582 570.6 598.7 562.5 625.9 565C631.9 565.5 638 565.3 641.9 562.9C649.1 558.5 657.9 559.5 667.9 561.6C689.5 566.3 689.7 566.2 676 573.9C672.3 576.1 668.6 578.3 672.3 581.3C675.9 584.1 681.3 586 688.5 586.1C697.2 586.3 705.8 586.3 714.5 586.3C718.2 586.3 722.6 585.6 725.3 587.2C730.9 590.3 736.6 593.7 745.7 592C758.1 589.6 772.8 587.9 776.1 580.6C778.9 574.6 783.6 570.1 799.2 570.4C804.4 570.5 808.7 568.8 806.9 565.9C805 562.8 799.4 563.5 794.6 563.8C790.3 564.1 783.9 565.9 782.4 562.5C781.1 559.1 788.9 559.2 793.8 559C805.5 558.3 816.8 559.2 817.8 566.1C818.6 571.9 831.4 572.2 836.1 576.4C841.5 581 845.6 584.9 838.2 589.3V589.4C855.2 590.4 871.9 592.1 887.1 596.1H899C900.9 595.3 903.9 595.3 907.7 596C908 596 908.3 596.1 908.5 596.1H948.6C948.7 596.1 948.8 596.1 949 596.1C953.6 595.7 957.5 595.4 956.6 592.6C955.8 590.1 953.7 587.9 947.3 588.1C927.9 588.4 908.2 582.5 888.1 587.6C877.1 590.3 865.2 584.5 857.7 580.6C851.1 577.3 863.2 576.7 866.6 574.6C866.5 574.6 866.4 574.6 866.4 574.6C864.4 574.1 862.4 573.1 860.6 573.1C841.5 572.6 834.5 568 833.5 559.3C832.6 550.4 811.7 545.3 791.1 547.5C783.7 548.3 768.7 553.5 776.6 542.8C778.5 540.3 771.8 539.2 766.9 538.9C762.2 538.6 757.2 538.5 752.4 538.1C749 537.9 745.6 537.6 745.4 535.6C745.4 534.1 748 533.7 750.2 533.2C779 526.1 809.5 527.5 840.4 532.4C843.8 532.8 849.2 533.2 848.5 535.4C847.8 537.6 842.9 536.9 839.2 537C831.2 537.1 818.6 535 817.6 540C816.8 544.8 830.2 543.6 837 545.3C846.1 547.4 856 548.5 866.7 547.5C879.4 546.4 890.1 552.2 907.1 551.1C887.6 557.7 888.9 564.7 906.3 570.7C911.7 572.7 918.7 573.9 918 577.7C918.1 577.7 918.2 577.7 918.2 577.8C929.9 577.1 940.8 577.7 952.6 580.3C967.9 583.6 984.1 580.4 999.9 580.4C1002.5 580.4 1004.6 579.4 1004.5 577.9C1004.5 576 1001.1 575.5 998.1 574.8C984.1 571.8 970.9 567.8 954.9 567.8C952.2 567.8 949.5 567.5 946.8 567.3C940.9 566.6 933.9 565.8 932.5 562.8C930.9 559.3 939.1 559.1 943.8 557.8C945.4 557.4 948 557.4 950 557.1C950.1 557.1 950.2 557.2 950.3 557.2C956.8 557.1 963.3 557 969.9 556.9C970.3 556.9 970.6 556.9 970.9 556.9C970.5 556.9 970.1 556.9 969.7 556.8C973.4 554.5 976.9 552.1 980.3 550C980.4 550.1 980.4 550.1 980.5 550.2V549.6C977.2 542.5 969.5 540.6 956.8 543.9C951.4 545.2 947.1 547.4 941.7 549C937.6 550.1 931.7 551.3 930 547.9C925.9 539.8 909.4 538.7 898 534.6C894.3 533.3 887.5 533.5 887.3 530.5C887.4 527.8 893.3 527.5 897.5 526.7C909.9 524.1 921.7 520.8 935.8 520.1C940.8 519.8 948 519.7 950.1 522.6C952.2 525.6 945 525.6 940.9 526.4C937.1 527.3 933.1 528 929.8 529.2C926 530.4 915.5 530.3 921.7 534.3C925.8 536.9 934.2 538.8 939.9 535.8C948.9 531 960.3 531.5 972.4 532.5C972.7 532.5 973.1 532.5 973.3 532.6C973.1 532.6 972.8 532.5 972.6 532.5C989.4 531.3 1003.9 536.1 1019.4 537.8C1039.9 540 1059.8 545.4 1081.7 541.2C1089.9 539.6 1100.7 540.8 1110.4 540.5C1114.7 540.5 1120.1 541.3 1123.2 540.4C1148.4 533.6 1168.1 540.9 1188.2 547.6C1192.5 548.9 1196.7 550.2 1201 551.4C1201.4 551.5 1201.8 551.5 1202.1 551.6C1208.6 551.9 1215.1 552.4 1221.6 552.7V552.8C1223.1 553.1 1225.2 553.2 1225.6 553.8C1233 561.1 1218.4 565.7 1217.5 572.2C1216.8 575.7 1209.1 575.9 1202.1 575.6C1192.8 575.1 1183.8 574.6 1174.5 574C1169.8 573.8 1163.7 573 1160.5 574.5C1148.1 581.2 1131.5 578.8 1115.2 577.8C1114.7 577.9 1114.3 577.9 1113.8 578C1110.9 577.6 1107.8 577.3 1104.3 577.1C1095 580.1 1097.9 585.2 1097.7 589.3C1097.6 593.7 1105 591.8 1109.4 590.8C1117 588.9 1124.1 586 1128.3 593C1128.9 593.9 1132.5 594.7 1134.6 595.2C1134.9 595.2 1135.1 595.3 1135.3 595.3H1220.2C1207.7 593.4 1195.1 592.2 1182.3 591.8C1178.4 591.7 1174.5 591.6 1171.5 590.3C1165.5 588 1161 585 1155 590.5C1151.7 593.6 1142.3 589.8 1135.8 589C1132.4 588.6 1130.3 587.1 1131.5 585.4C1133.1 582.9 1138.3 582.3 1143 582.4C1152.9 582.6 1159.9 579.9 1167.5 577.7C1178.1 574.6 1188.4 574.6 1198.9 578.5C1212.2 583.5 1225.8 581.1 1239.1 580.1C1243 579.9 1246.7 578.1 1246.9 575.8C1247.2 573.2 1242.3 572.6 1238.5 571.7C1225.8 568.7 1224.6 565.9 1235.3 561.7C1248.4 556.8 1247.9 554.3 1234.3 547.9C1231.3 546.6 1230.5 544.8 1228.5 543.3C1222.3 538.5 1213.8 535.6 1201.2 537.2C1195.4 537.9 1189.7 538.3 1183.9 537.1C1180.8 536.4 1177.9 535.6 1177.3 533.9C1176.6 532.2 1179 531.1 1182.2 530.6C1209.8 526.9 1236.7 521.3 1267.5 523C1282.6 523.9 1297.9 525 1312.8 525.6C1326.4 526.3 1339.6 526.7 1347.9 533.7C1353.3 538.1 1365.3 537 1374.4 539.4C1356.2 537.5 1345.8 543.8 1332.3 546.1C1321.4 548.1 1317.4 551.2 1327.7 556.2C1336.6 560.5 1333.1 562.2 1322.1 562.4C1315.2 562.6 1308.1 562.9 1301.4 563.7C1295.8 564.2 1290.1 566.5 1293.3 569C1302.3 575.5 1293.5 582.8 1302.3 589.3C1305.2 591.5 1305.1 593.4 1302.8 594.9H1402C1398.3 593 1391.9 592.3 1380.5 591.6C1357.2 590 1350.9 586.6 1353.9 576.9C1355.8 569.9 1364.4 567.3 1379.4 569.6C1389.7 571.3 1400 572.8 1410.8 574C1422.1 575.2 1427.6 578.4 1420.8 583.3C1415.8 587 1413.7 590.6 1416.5 595H1446C1447.7 589.6 1453 588.5 1470.9 590.9ZM1209.8 482.4C1210.4 479.6 1213.9 479.2 1228.5 480C1239.8 480 1246.7 482.7 1246.4 488.8C1246 494.2 1237.3 493.9 1228.9 493.6C1216.7 493.1 1208.5 488 1209.8 482.4ZM573.1 496.7C553 503.5 526.4 504 505.1 510.1C497.1 512.4 481.8 512 476.5 507.9C468.3 502 459.2 501.8 447.8 502.3C444.1 502.5 439.5 503 437.5 501.1C435 498.5 440.4 497.7 444.1 497C476.6 489.9 510.2 484.1 548.8 489.6C553.9 485.2 562.3 485.5 571.2 487.1C576.6 488 581.1 489.9 582.2 492.5C583.2 495.3 576.7 495.4 573.1 496.7ZM1174.2 504.7C1173.6 507.4 1169.5 508.3 1164.4 508.5C1158.9 508.7 1153.7 508.6 1149.2 508.6C1143.4 507.7 1135.3 508.9 1134 506.3C1132.4 503.1 1140.8 502.9 1145.7 501.7C1149.5 500.9 1153 499.8 1156.5 498.9C1160.8 497.7 1165.1 497.3 1169.7 499.1C1173.1 500.8 1174.7 502.6 1174.2 504.7Z" fill="#374256"/>
<path d="M299 475C302 475.2 305.2 475.4 308.3 475.7C308.6 475.5 308.8 475.4 309.1 475C323.9 458 327 457.4 369.3 459.8C369.4 459.8 369.5 459.8 369.5 459.8C384.2 457.3 397.8 454 415.8 457.2C433.2 460.4 449.7 457.1 465.1 453.7C475.1 451.5 463.4 447.7 466.2 444.4C468.3 441.9 460.1 442.8 456.6 442.5C444.6 441.7 433.1 442.2 422.1 444.4C410.8 446.6 399.1 445.6 387.5 443.7C385 443.3 384.5 441.8 386 441.2C393.9 437.7 404.7 436.9 415.3 436.5C432.3 436 449.7 436.7 466.3 435.4C486.6 433.8 506.7 432 527.3 431.6C532.1 431.5 536.8 430.6 541.6 430.6C561.1 430.9 581.2 431.8 600 429.1C601.6 428.2 605.6 428.2 608.1 427.6C622.2 427.7 636.5 426.9 650.9 428.7C651 428.8 651.2 428.9 651.3 429C651.3 428.9 651.3 428.8 651.3 428.7C663 423.8 677 427.7 690 427.8C698.2 425.5 710.8 428.2 716.7 423.4C704.2 422.2 692.1 424.4 680.8 423.6C642.3 421 606.4 425.9 568.9 426.2C526.6 426.6 484.7 429.2 442.8 430.7C415.8 431.6 388.4 431.7 361.5 433.3C339.2 434.5 317.1 434.5 294.7 434.5C294.5 434.5 294.2 434.5 294 434.5C293.9 434.5 293.7 434.6 293.6 434.6C288.6 437.3 281.4 436.7 274.5 436.2C274.4 436.2 274.3 436.2 274.2 436.3C266.9 435.9 260.7 437.1 254.4 438.2C245.1 440.1 235.2 440.2 225 439.4C224.9 439.4 224.7 439.4 224.5 439.5C215.7 440.2 207.1 440.2 198.2 439.5C191.8 441.9 184.6 443.2 175.6 442.6C175.4 442.6 175.2 442.6 175 442.7C165 442.8 154.9 443.5 144.5 443.1C121.4 442.3 100.4 448.1 76.9003 445.9C74.4003 447.2 72.1003 448.5 69.8003 449.8C69.9003 449.8 69.9003 449.8 70.0003 449.8C76.1003 450.3 79.4003 452 79.2003 454.9C113.9 457.7 147.2 454.5 181 453.4C197.3 453 211.9 450.4 227 448.6C240 447 249.3 449 257.8 454.4C263.9 458.2 260.7 459.1 253.9 460C248 460.8 240.9 459.6 235.4 461C241.5 465.7 232 467 227.8 469.5C246 467.9 263.5 466 282.4 465.9C303.9 465.9 304.8 465.7 298.7 475.1L298.6 475.2C298.8 475 298.9 475 299 475Z" fill="#145A84"/>
<path d="M308.7 475.6C308.7 475.5 308.7 475.5 308.7 475.6C308.6 475.6 308.5 475.6 308.3 475.6C308.5 475.5 308.7 475.5 308.7 475.6Z" fill="#145A84"/>
<path d="M1550 428.5C1552.7 429.5 1555.6 429.7 1558.6 429.8C1555.9 429.3 1553.2 428.8 1550 428.5Z" fill="#083555"/>
<path d="M1353 421.1C1329.8 420.2 1306.8 420.8 1283.4 418.7C1283.3 418.8 1283.2 418.8 1283.1 418.9C1284.2 420.4 1284 421.9 1282.7 423.2C1306.2 425.4 1331.3 423.3 1353.7 430.2C1356.6 431.1 1361.2 431.2 1362.4 432.4C1380.7 447 1406.6 439.1 1429.2 439C1440.5 439 1449.9 437.5 1461.1 441.6C1473.6 446.3 1495.2 444.7 1500.2 438.1C1509.4 426.2 1527.8 426.3 1550.1 428.7C1565.5 429.2 1581 429.6 1584.2 439.4C1585 441.7 1590.6 442.8 1596.1 442.7C1613.2 442.4 1630.5 443 1642.3 435.7C1646.7 433.1 1653.3 431.4 1659.8 436.6C1666.2 442 1679.8 442.2 1690.2 442.3C1721.9 442.7 1753.5 443.4 1785 446.8C1792.7 447.6 1800.2 447.8 1803.3 443.5C1803.2 443.5 1803.2 443.5 1803.1 443.4C1777.5 447.5 1767.5 439.6 1758.8 430.3C1758.9 430.3 1759 430.3 1759.1 430.3C1759 430.3 1758.9 430.2 1758.8 430.2C1724.9 428.5 1691.5 426.8 1657.1 426.8C1603.5 426.9 1549.6 423.5 1495.8 423.1C1454.6 422.8 1412.9 422.2 1371.2 419.6C1365.4 420.4 1359.4 421.5 1353 421.1Z" fill="#083555"/>
<path d="M808.5 430.1C809.1 434.6 802.1 436.2 794.9 437.1C782.6 438.4 773 442.8 759.2 442.9C755.3 443 749.9 443.9 756.4 446.4C756.4 446.4 756.4 446.4 756.5 446.4C787.5 446.8 817.4 443.6 848.6 446C848.5 446.1 848.4 446.1 848.3 446.2C857.5 443.4 866.5 440.7 878.8 444.6C883.8 446.1 891.2 445.8 897.2 444.6C897.8 444.5 898.3 444.5 898.9 444.4C898.4 444.4 898 444.4 897.5 444.4C901.9 441.3 908 440.1 916.5 440.3C927.2 440.4 938.3 441.2 947.6 438C948.7 437.6 951.1 437.3 952.2 437.6C975.6 444.6 997.9 433.5 1022.3 439.3C1034.5 442.3 1045.7 435.8 1058.8 435.9C1058.9 435.9 1058.9 435.9 1059 435.9C1059 435.9 1059 435.9 1059.1 435.9C1081.3 438.1 1101.8 432.5 1124 435.1C1124.1 435.1 1124.2 435.1 1124.4 435.1L1124.3 435C1137.1 433.5 1148.7 431.2 1159 427C1142.3 429.6 1125.9 425.9 1109.3 425.1C1066 421.8 1022.7 422.4 979.2 420.4H979.1C969.2 419.5 960.8 422.3 950.9 421.9C906.4 419.9 862.9 423.1 818.7 423.1C814.8 425.3 808 426.4 808.5 430.1Z" fill="#365D84"/>
<path d="M662.7 471.5C668.8 472.4 677.9 471.5 679.6 467.8C680.9 464.4 674.6 461.8 668.5 459.8C665.4 458.8 661.5 458.5 657.8 457.7C690.3 452.7 721 446 756.5 446.4C750 443.9 755.5 442.9 759.3 442.9C773 442.8 782.7 438.4 795 437.1C802.2 436.3 809.2 434.6 808.6 430.1C808.1 426.5 814.8 425.3 818.5 423C811.4 422.7 804 421.9 797.1 422.2C770.6 424.2 744 424.8 716.9 423C716.9 423 716.8 423 716.8 423.1C710.9 427.9 698.4 425.2 690.1 427.5C690.2 427.5 690.3 427.5 690.4 427.5C694.2 437.7 705.8 428.3 713.2 429.9C705.4 435.4 667 438.8 656.2 435.3C651 433.6 651.2 431.2 651.5 428.8C651.4 428.7 651.2 428.6 651.1 428.5C636.7 426.8 622.5 427.5 608.3 427.4C605.7 427.9 602 427.9 600.2 428.9C603.1 428.5 605.9 428 608.7 427.4C604.3 429.3 602.6 430.9 611 431.9C617.2 432.6 622.7 431.6 628.3 430.8C631.6 430.3 635.2 430.7 636.6 432.4C638.3 434.7 634 434.5 631.1 434.8C615.6 436.7 606.5 442.6 594.3 446.6C586.4 449.2 595.4 451.9 600.3 453.7C608.2 456.5 614 459.4 604.8 463.2C604.7 463.2 604.6 463.2 604.5 463.2C615 464.5 617.6 467.1 610.4 470.9C627.6 470.9 644.7 468.5 662.7 471.5ZM627 460.6C627.6 459.6 629.7 459.3 631.9 459.6C634.2 459.9 635.4 460.7 635.3 461.9C634.7 462.9 633.3 463.5 631 463.2C628.2 462.9 626.2 462 627 460.6Z" fill="#213C59"/>
<path d="M1170.3 421.9C1207.7 420.3 1245.1 422.1 1282.5 423.1C1282.6 423.1 1282.7 423.1 1282.8 423.1C1284.2 421.9 1284.4 420.4 1283.2 418.8C1280.9 418.7 1278.7 418.5 1277.1 418.5C1228.3 418 1179.8 419.4 1130.7 417.4C1126.2 417.3 1122.2 417.7 1120 419.6V419.7C1136.6 423.9 1154.5 422.6 1170.3 421.9Z" fill="#03365D"/>
<path d="M1109.1 425C1110.1 422.3 1115.4 421.3 1119.5 419.6L1119.3 419.5C1098.7 417.6 1078.2 417.8 1057.8 417.8C1031.3 417.9 1004.3 417.3 978.6 420.3C978.7 420.3 978.8 420.3 978.9 420.3C1022.4 422.1 1065.8 421.6 1109.1 425Z" fill="#03365D"/>
<path d="M1891.6 435.3C1847.3 433.8 1803.2 430.3 1759 430.3C1758.9 430.3 1758.8 430.3 1758.7 430.3C1767.4 439.5 1777.3 447.5 1803 443.4C1803.1 443.4 1803.1 443.4 1803.2 443.5C1803.2 443.5 1803.2 443.5 1803.3 443.4C1824.1 441.3 1844.2 445.3 1864.2 447.8C1873.5 448.9 1882.3 449.9 1891.2 448.6C1906.5 446.3 1919.3 452 1933.5 453.3C1946.4 454.4 1958.9 456.6 1971.2 453.7C1977.7 452.2 1985.1 454.1 1991.9 454.4C2005.3 454.9 2018.9 456.4 2032.3 456C2037.3 455.8 2042.5 456.5 2044.3 459.2C2046 461.7 2041.4 462.6 2037.7 463.5C2036.3 463.8 2034.9 464.2 2033.4 464.4C2028.2 465.9 2026.5 468 2029.9 470.6C2033 473 2038 473.6 2042.5 472.2C2044.1 471.8 2045.7 471.4 2047.2 471.2V442.4C2034.6 442 2022 441.5 2009.5 441.4C1970.6 441.2 1931 436.6 1891.6 435.3Z" fill="#0B4068"/>
<path d="M-10.9999 498.8C-1.2999 499.6 8.5001 499.6 17.9001 498.8C18.0001 498.8 18.1001 498.7 18.2001 498.7C21.0001 492.9 34.9001 492.6 41.8001 492.7C60.2001 492.9 74.0001 487.2 91.5001 486.9C96.6001 480.4 103.9 476.7 121.2 481.2C134.9 484.8 149.6 482.1 162.7 480.9C207.1 476.5 253.3 477 298.3 475L298.4 474.9C304.5 465.5 303.6 465.6 282.1 465.7C263.3 465.8 245.7 467.8 227.5 469.3C227.4 469.3 227.4 469.4 227.3 469.4C214.3 470.9 200.7 471.9 188.3 474C177.6 475.9 167.5 475.6 157.1 473.6C154 473.1 151 472 151.1 470.3C151.1 468.4 154.8 468.1 157.7 467.8C176 465 195.1 463.4 215.2 464.3C223.5 464.6 229.5 463.5 234.5 460.9H234.6C234.6 460.9 234.7 460.9 234.7 460.8C240.3 459.3 247.4 460.5 253.2 459.8C260 459 263.2 458.2 257.1 454.2C248.6 448.9 239.2 446.9 226.3 448.4C211.3 450.3 196.5 452.8 180.3 453.2C146.5 454.2 113.2 457.6 78.5001 454.7C70.9001 456.6 61.0001 456 55.1001 459.3C54.9001 459.3 54.8001 459.3 54.6001 459.3C52.6001 461.3 45.4001 462.1 48.1001 464.6C51.4001 467.7 57.7001 465.6 62.8001 465.8C77.9001 466.5 92.7001 466.2 106.7 463.4C112.9 462.2 117.1 463.9 119.1 466.8C120.8 469.2 123.6 472.8 117.4 473.4C108.6 474.2 99.6001 477.1 92.3001 476.6C76.0001 475.3 68.8001 478.3 61.8001 483.8C56.8001 487.9 46.0001 486 37.9001 485.4C30.0001 484.9 33.8001 481.6 33.6001 479.2C33.6001 475.6 28.9001 475.4 24.2001 477C21.1001 478.1 17.4001 480.3 17.8001 481.8C19.8001 491.4 5.2001 493 -9.8999 494.4C-17.7999 495.2 -25.6999 496.3 -33.3999 497.1V497.3C-25.2999 497.8 -17.9999 498.3 -10.9999 498.8Z" fill="#022947"/>
<path d="M4.4001 462.8C16.5001 464.9 26.3001 464.3 35.9001 461.1C26.8001 460.6 17.6001 460.1 8.5001 459.5C3.8001 459.2 -2.5999 459.2 -4.4999 456.8C-7.1999 453.5 1.6001 453.6 4.6001 451.8C4.7001 451.8 4.8001 451.8 4.9001 451.8C4.9001 451.8 4.8001 451.8 4.8001 451.7C-2.7999 451.8 -10.5999 451.3 -17.5999 452.1C-22.4999 452.8 -27.3999 453.2 -32.3999 453.7V463.3C-21.5999 460.2 -8.5999 460.6 4.4001 462.8Z" fill="#3F5E77"/>
<path d="M70.3 449.6C70.2 449.6 70.2 449.6 70.1 449.6H70C63.6 449.3 57.2 448.8 50.8 448.5C35.6 449.6 20.2 450.7 4.80002 451.8C4.70002 451.8 4.60002 451.8 4.50002 451.8C1.50002 453.7 -7.09998 453.5 -4.59998 456.8C-2.89998 459.1 3.60002 459.1 8.40002 459.5C17.5 460.2 26.7 460.5 35.8 461.1C42.6 460.9 48.2 458.7 55.6 459.2C55.8 459.2 55.9 459.2 56.1 459.2C62 456 72 456.4 79.5 454.6C79.5 451.8 76.4 450.1 70.3 449.6Z" fill="#21334F"/>
<path d="M50.6003 482.2C54.8003 481.5 59.7003 480.9 59.8003 478.3C59.7003 477.1 57.1003 476.4 55.0003 476.8C50.6003 477.5 45.3003 477.9 45.4003 480.7C45.5003 481.9 47.9003 482.3 50.6003 482.2Z" fill="#022947"/>
<path d="M70.1001 449.5C72.5001 448.2 74.7001 446.9 77.2001 445.6C77.1001 445.6 77.1001 445.6 77.0001 445.6C67.0001 444.8 59.0001 446.7 50.6001 448.6C50.7001 448.6 50.8001 448.6 50.8001 448.6C57.2001 448.8 63.6001 449.1 70.1001 449.5Z" fill="#022947"/>
<path d="M254.4 437.9C244.4 437.8 233.3 435.1 224.8 439.1C224.9 439.1 224.9 439.1 225 439.1C235.2 439.7 245.1 439.6 254.4 437.9Z" fill="#022947"/>
<path d="M293.7 434.3C293.8 434.2 294 434.2 294.1 434.1C286.8 433.8 279.4 433 274.3 436C274.4 436 274.5 436 274.6 436C281.5 436.3 288.7 437 293.7 434.3Z" fill="#00224C"/>
<path d="M198.4 439.1C198.5 439.1 198.6 439 198.7 439C190.1 438.7 182.3 439.9 175.5 442.1C175.6 442.1 175.7 442.1 175.9 442.1C184.8 443 191.8 441.5 198.4 439.1Z" fill="#022947"/>
<path d="M1500.1 438C1495.2 444.6 1473.5 446.2 1461 441.5C1449.9 437.4 1440.3 438.9 1429.1 438.9C1406.5 439 1380.7 446.8 1362.3 432.3C1361.1 431.2 1356.5 431.1 1353.6 430.1C1331.2 423.4 1306.2 425.3 1282.6 423.1C1282.5 423.1 1282.4 423.1 1282.3 423.1C1245 422.1 1207.5 420.4 1170.1 421.9C1154.1 422.6 1136.1 423.9 1119.8 419.7C1119.6 419.7 1119.5 419.6 1119.3 419.6C1115.2 421.2 1109.8 422.2 1108.9 425C1125.5 425.7 1141.9 429.5 1158.6 426.9C1148.3 431 1136.6 433.4 1123.9 434.9L1124 435C1146.4 435.4 1168.8 435.7 1191.5 436.1C1196 436.2 1203.4 435.7 1204.1 438.3C1204.9 441.3 1197.3 441.1 1192.5 441.8C1180.6 443.5 1168 439 1156.1 441.4C1156 441.4 1156 441.4 1155.9 441.4L1156 441.5C1157.8 443 1160 444.7 1162 446.3C1161.8 446.4 1161.6 446.5 1161.5 446.5C1161.5 446.5 1161.5 446.5 1161.6 446.5C1168.7 448.5 1175.5 450.4 1174.9 454.9C1174.7 456.2 1174.1 458.1 1178.4 458.6C1183.8 459.1 1185.5 457.3 1187 455.4C1187.1 455.3 1187.2 455.3 1187.3 455.2C1187.2 455.2 1187.1 455.2 1187 455.2C1184.3 451.4 1186.6 449.3 1196 450.4C1200.7 450.7 1205.5 451.3 1210.2 452C1212 449.9 1215.8 449.5 1220.3 449.6C1214.3 444.5 1217.7 442.3 1229.7 441.9C1241.2 441.6 1252.4 442.6 1263.8 443C1264.9 443.1 1266.4 443.3 1267.4 443.4C1267.5 443.5 1267.7 443.5 1267.8 443.6C1276.1 443.4 1284.7 443.4 1293.2 443.3H1293.3L1293.2 443.2C1297 442.1 1301.7 442.4 1306.3 442.4C1306.4 442.4 1306.5 442.4 1306.5 442.4C1306.4 442.4 1306.4 442.3 1306.3 442.3C1309.9 439.5 1316.1 440.1 1322.1 440.2C1348.1 440.9 1373.2 444.5 1398.7 446.3C1407.5 447 1413.5 449.8 1416.6 453.5C1418.5 456.3 1412.5 456.6 1409 457.3C1408.9 457.3 1408.9 457.3 1408.8 457.3L1408.9 457.4C1411.5 459.3 1414.9 460.9 1419.5 460.4C1436 458.3 1453.8 459.7 1470 457.8C1483 456.3 1494.4 459.8 1506.6 460.8C1512 461.2 1510.4 463.5 1506.8 464.6C1502.3 466.1 1496.3 466.5 1491.5 465.6C1475.5 463.1 1459.3 464.7 1443.5 462.9C1437 462.1 1431.4 463.1 1427.7 465.3C1422.5 468.4 1430.2 469.7 1433.8 471.1C1439.5 473.4 1435.4 474.9 1433.1 476.7C1454.4 479.4 1475.5 475.6 1496.7 478.9C1504.4 480 1512.8 480.5 1520.2 481.9C1520.3 481.9 1520.3 482 1520.4 482C1526.2 482.8 1532.5 484.4 1537.7 484.2C1577.7 481.8 1618.7 485.5 1658.9 483.9C1679.6 483.1 1700.7 483.7 1721.8 484.9C1751.4 486.9 1780.7 488.3 1810.3 488.5C1815.5 487.2 1821.1 487.6 1826.9 488C1827 488 1827.2 488.1 1827.3 488.1C1834.2 488.1 1841.2 488 1848.1 488C1848.7 488 1849.1 487.9 1849.7 487.9C1857.9 488.3 1865.7 488.1 1872.7 486.2C1862.6 477.4 1844.5 474.8 1829.6 480.3C1824.6 482.2 1819.9 481.6 1814.7 481.4C1790.4 480.5 1766.9 476.1 1742.1 476.7C1731.1 476.9 1719.8 474.3 1712.3 468.5C1704 461.9 1678.3 459.4 1658.3 462.3C1644.1 464.4 1630.3 463.5 1614.1 461.3C1622.2 456.7 1633.1 459 1641.8 458.2C1649.5 457.4 1660.4 458.3 1659.3 453.2C1657.9 447.9 1647.6 448.2 1638.4 448.2C1622.1 448.3 1606.1 448 1589.8 448C1581.6 448 1574.7 446.8 1574.8 442.6C1574.9 436 1569.4 432 1558.4 429.7C1555.4 429.7 1552.3 429.5 1549.8 428.4C1527.7 426.1 1509.2 425.8 1500.1 438ZM1529.4 440.2C1539 438.5 1548.5 438.2 1562.4 440.7C1548.3 442.8 1538.6 441.1 1529.4 440.2Z" fill="#2C5275"/>
<path d="M2030 470.8C2026.7 468.2 2028.3 466 2033.5 464.6C2034.8 464.3 2036.3 463.9 2037.8 463.7C2041.6 462.8 2046.2 462 2044.4 459.4C2042.7 456.8 2037.5 456 2032.4 456.2C2018.9 456.6 2005.4 455.2 1992 454.6C1985.2 454.3 1977.9 452.4 1971.3 453.9C1958.8 456.7 1946.3 454.6 1933.6 453.5C1919.4 452.2 1906.6 446.5 1891.3 448.8C1882.2 450 1873.4 449.1 1864.3 448C1844.3 445.5 1824.2 441.8 1803.4 443.6C1803.4 443.6 1803.4 443.6 1803.3 443.7C1800.2 448.1 1792.6 447.8 1785 447C1753.5 443.7 1721.8 443.1 1690.2 442.5C1680 442.3 1666.3 442.2 1659.8 436.8C1653.4 431.7 1646.7 433.2 1642.3 435.9C1630.5 443.1 1613.3 442.5 1596.1 442.9C1590.6 443 1585 441.9 1584.2 439.6C1581 429.8 1565.6 429.4 1550.1 428.9C1553.3 429.2 1556.2 429.7 1558.7 430.2C1569.6 432.5 1575.2 436.5 1575.1 443.1C1575.1 447.2 1582 448.5 1590.1 448.5C1606.4 448.5 1622.4 448.7 1638.7 448.7C1647.9 448.6 1658.1 448.5 1659.6 453.7C1660.7 458.8 1649.8 458.1 1642.1 458.7C1633.3 459.6 1622.4 457.2 1614.4 461.8C1630.6 464.1 1644.4 464.9 1658.6 462.8C1678.6 460 1704.3 462.5 1712.6 469C1720.2 474.8 1731.4 477.5 1742.4 477.2C1767.4 476.7 1790.8 480.9 1815 481.9C1820.2 482.1 1824.9 482.6 1829.9 480.8C1844.8 475.3 1862.8 478 1873 486.7C1873.1 486.7 1873.1 486.8 1873.2 486.8C1912.3 486.9 1951.3 486.3 1990.2 491.2C1995.3 491.9 1999.7 491.3 2003.4 490C2001 489 1999 487.7 1996.1 487C1992.1 485.9 1984.3 486.2 1984.7 483.4C1985.1 480.3 1992.8 480.9 1997.8 480.8C2014.4 480.8 2030.8 481.8 2047.3 483.1V471.7C2045.8 471.9 2044.2 472.2 2042.6 472.7C2038.1 473.8 2033.1 473.1 2030 470.8ZM2013.5 459.6C2011.8 463 2002.4 460.5 1996.7 460.8C1992.1 459.8 1983 460.8 1984.5 457.5C1986 454.1 1995.4 456.2 2001.3 456.5C2006.2 456.9 2015.1 456.4 2013.5 459.6Z" fill="#133555"/>
<path d="M1722 485.1C1700.9 483.8 1679.8 483.2 1659.1 484.1C1619 485.8 1577.9 482 1537.9 484.4C1532.6 484.7 1526.4 483.1 1520.6 482.2C1523.2 484.2 1527.1 485.5 1531.5 486.7C1550 491.6 1552.3 494.4 1544.5 502.7C1541.8 505.4 1536.9 506.5 1530.4 506.4C1524.5 506.3 1521.3 504.4 1520.5 501.9C1517.4 493.1 1506.8 494.9 1495.7 497.3C1488.6 498.9 1482.1 500.8 1473.4 500.6C1469.7 500.6 1464.9 501 1465.5 503.3C1466.3 505.9 1471.9 506.5 1475.6 505.9C1484.9 504.4 1494.4 504.6 1504.1 504.3C1508.6 504.3 1513.3 504.2 1515.2 506.6C1517 508.8 1513.7 509.8 1510.6 510.9C1498 514.7 1489.4 522.1 1469.8 519.9C1465.9 519.5 1462.1 520.6 1461.7 522.5C1461.2 524.6 1464.1 526.2 1468 526.3C1490.9 527.2 1509.9 536.1 1533.5 535.2C1533.6 535.3 1533.7 535.4 1533.8 535.6C1543.5 535.7 1553.3 535.7 1563.1 535.7C1563.3 535.6 1563.5 535.6 1563.8 535.6C1563.6 535.6 1563.4 535.6 1563.2 535.6C1568 533.7 1569.3 527 1579.8 533.7C1579.7 533.8 1579.5 533.8 1579.4 533.9C1579.5 533.9 1579.6 533.9 1579.8 533.9C1584.1 534.4 1588.1 535.1 1592.4 536C1599.8 537.7 1607.3 538.3 1615.1 538.6C1615.1 538.6 1615.2 538.6 1615.3 538.7C1619.2 535.4 1634 537.1 1632.5 531C1632.4 530.9 1632.3 530.9 1632.3 530.8C1614 532.4 1596.8 535.2 1577 528.5C1568.7 525.7 1552.4 528.3 1539.8 528.4C1530.6 528.5 1521.5 528.7 1512.4 528.7C1507.4 528.6 1502.6 527.5 1501.1 524.9C1500.1 522.6 1503.7 521.3 1507.5 520.5C1515.9 518.8 1523.6 515.8 1534.5 518.2C1539.4 519.3 1544.3 518.1 1547.9 516.6C1556 513.4 1566.2 512.1 1576.4 513.1C1606.9 515.8 1636.1 512.2 1666 512.3C1690.1 512.4 1715.6 511 1739.9 508.5C1735.8 502.4 1725.5 503.1 1715.9 503.1C1697 503.2 1680.6 498.7 1663.7 495.1C1659.6 494.3 1657.2 492.8 1661.9 491.2C1669.3 488.7 1704.2 488.8 1710.2 491.9C1723.5 498.6 1738.6 499 1754.5 496.3C1760.5 495.4 1765.4 495.1 1765.1 499C1764.7 506 1775.8 504.6 1783.2 504.3C1790.8 503.9 1804.1 505 1799.9 498C1798.5 495.2 1799.3 493.5 1805.3 493.1C1811.1 492.7 1811.3 490.8 1810.9 488.6C1810.8 488.6 1810.7 488.6 1810.6 488.6C1780.9 488.5 1751.6 487 1722 485.1Z" fill="#243348"/>
<path d="M1666 512.7C1636.1 512.6 1607 516.2 1576.4 513.5C1566.3 512.6 1556 513.8 1547.9 517C1544.3 518.3 1539.4 519.6 1534.5 518.6C1523.6 516.2 1516 519.1 1507.5 520.9C1503.5 521.7 1499.9 523 1501.1 525.3C1502.3 527.9 1507.2 529 1512.4 529.1C1521.5 529.1 1530.7 528.9 1539.8 528.8C1552.4 528.6 1568.6 526.1 1577 528.9C1596.9 535.5 1614.1 532.7 1632.3 531.2C1632.4 531.2 1632.5 531.2 1632.6 531.2C1640.3 530.4 1654.4 535.6 1652.3 526.6C1651.9 524.3 1661.3 524 1666.4 526.6C1669.6 528.2 1672 530.1 1674.6 532C1674.9 532 1675.3 531.9 1675.5 531.9C1685.9 532.4 1696.6 533.2 1707.2 534C1717.8 534.4 1727.8 535.3 1737 531.4C1743.8 528.4 1754.4 531 1763.3 531.2C1763.4 531.2 1763.5 531.3 1763.5 531.3C1765.2 531.3 1767.5 531.3 1769.4 531.4C1769.5 531.4 1769.5 531.4 1769.6 531.3C1774.9 528.6 1781.9 527.7 1789.7 528C1789.8 528.2 1789.9 528.3 1790 528.4C1814.9 532.2 1838.4 539.1 1865.7 538.2C1868.1 538.1 1870.9 538.9 1873.1 539.7C1889.2 544.6 1905.3 542.7 1921.7 542.1C1921.6 542 1921.4 541.9 1921.3 541.8C1916.4 537.3 1900.3 535.3 1906.7 528.6C1907 528.3 1904.6 527 1903.5 527C1889.4 526.3 1877.5 521 1863.1 521.3C1855.5 521.4 1845.8 525 1841 521C1836.3 516.9 1848.4 514.9 1852.6 511.8C1852.9 511.6 1853.4 511.5 1853.5 511.3C1853.4 511.2 1853.4 511.2 1853.3 511.2C1846.7 511.4 1840 511.5 1833.3 511.9C1822.9 512.4 1820.5 510.7 1824.6 506.6C1806.3 505.4 1788.9 507.7 1770.8 507.9C1760.6 508 1749 505.3 1739.9 509C1715.8 511.3 1690.2 512.8 1666 512.7ZM1847.2 535.1C1843.7 535.3 1840.2 534.4 1840.1 532.7C1840 529.9 1845.2 530.3 1849.3 530.3C1853 530.6 1858.2 530.6 1858.2 532.7C1858.2 535.7 1851.5 534.9 1847.2 535.1Z" fill="#0F2439"/>
<path d="M1833.4 511.6C1840 511.3 1846.7 511.2 1853.4 510.9C1853.6 510.9 1853.9 510.9 1854.1 510.9C1875.1 512.8 1898.6 510.6 1914.8 520.5C1916.9 521.8 1923 522.6 1926.9 522.4C1943.3 521.5 1961.1 526.2 1976.5 520.4C1980.8 518.9 1989.3 518.8 1995.3 519.5C2010.8 521.1 2025 517.8 2040.1 518.6C2046.2 518.8 2049.2 517.5 2046.2 514.3C2044.2 512 2004.4 498 1998.8 497.8C1998.3 497.8 1997.7 497.8 1997.2 497.8C1984.7 497.3 1972.4 496.7 1960 496.1C1959.9 496.1 1959.8 496 1959.6 496C1943.7 495.6 1930.6 498.8 1917.1 501.6C1888.2 507.5 1857.2 508.4 1825 506.2C1825.1 506.2 1825.2 506.2 1825.4 506.2C1825.2 506.2 1825 506.2 1824.8 506.2C1824.7 506.3 1824.7 506.3 1824.6 506.4C1820.6 510.3 1823.1 512.2 1833.4 511.6Z" fill="#011D39"/>
<path d="M1984.7 483.1C1984.3 485.9 1992.2 485.6 1996.1 486.7C1998.9 487.5 2001 488.7 2003.4 489.7C2003.4 489.7 2003.5 489.7 2003.5 489.8C2012.1 490.1 2020.4 491 2028.3 493C2034.4 494.6 2041.3 495.5 2047.3 495V483C2030.8 481.8 2014.4 480.7 1997.8 480.7C1992.8 480.4 1985.1 479.9 1984.7 483.1Z" fill="#303D53"/>
<path d="M1917.2 501.7C1930.6 499 1943.9 495.7 1959.7 496.1C1959.9 496.1 1960.1 496.1 1960.3 496.1C1954.2 492.4 1946.2 492 1937 492.2C1924.7 492.2 1917.5 496.9 1907.1 497.8C1885 500.1 1864.4 505.5 1840.1 504.4C1835.2 504.2 1830.4 505.5 1825.4 506.3C1825.3 506.3 1825.2 506.3 1825 506.3C1857.2 508.5 1888.1 507.6 1917.2 501.7Z" fill="#0F2439"/>
<path d="M1827.3 488.3C1835.7 492.7 1842.8 490.2 1850.1 488.1C1849.5 488.1 1848.9 488.1 1848.3 488.1C1841.4 488.1 1834.4 488.2 1827.5 488.2C1827.4 488.3 1827.4 488.3 1827.3 488.3Z" fill="#243348"/>
<path d="M1368.8 479.9C1379.6 479.4 1388.8 477.8 1400.6 479.6C1412 481.3 1422.4 478.3 1433 477.2C1433.1 477.2 1433.1 477.2 1433.2 477.2C1435.6 475.5 1439.5 473.9 1433.9 471.6C1430.2 470.1 1422.5 468.9 1427.8 465.8C1431.5 463.6 1437.1 462.6 1443.6 463.4C1459.4 465.3 1475.8 463.5 1491.6 466.1C1496.5 466.9 1502.5 466.5 1506.9 465.1C1510.5 464 1512.1 461.7 1506.7 461.3C1494.5 460.3 1483.1 456.8 1470.1 458.3C1453.8 460.3 1436.1 458.8 1419.6 460.9C1415 461.4 1411.5 459.8 1409 457.9L1408.9 457.8C1404.6 457.6 1400.4 457.4 1396.1 457C1390 460.2 1381.5 460.2 1372.9 460.1C1360 464.6 1345.1 465.2 1328.8 463.7C1324.7 463.4 1319.7 463.5 1316.4 464.2C1297.4 469.1 1279.7 463.5 1262 461C1258.4 460.5 1255 459.7 1251.2 459.8C1241.4 460.3 1234.1 459.3 1232.6 453.9C1231.7 450.7 1226 450.2 1220.3 449.6C1215.8 449.5 1212 449.9 1210.2 452C1206.9 458.7 1195.5 455.1 1187.3 455.3C1187.2 455.4 1187.1 455.4 1187 455.5C1185.5 457.4 1183.8 459.3 1178.4 458.7C1174.1 458.2 1174.8 456.3 1174.9 455C1175.5 450.4 1168.7 448.5 1161.6 446.6C1161.6 446.6 1161.6 446.6 1161.5 446.6C1146.6 454.4 1130.1 455.7 1108.5 449.1C1097.2 445.6 1082.5 446.7 1069.3 445.9C1045.4 444.3 1024.9 448.4 1002.8 448.7C993 448.8 984.9 449.6 978.4 452.5C969.5 456.4 960.4 455.7 954.2 450.9C947 445.4 938 444.7 926.4 445C917.2 445.2 908.1 444.6 898.8 444.2C898.2 444.3 897.7 444.3 897.1 444.4C891 445.6 883.7 446 878.7 444.4C866.2 440.6 857.3 443.2 848.2 446C844.7 448.6 843.6 452.2 834.5 452.2C834.5 452.2 834.5 452.2 834.5 452.3C834.4 452.3 834.4 452.3 834.3 452.3C831.1 453.8 825.7 455 828 457.6C830.7 460.6 836.6 458.5 841.1 458.8C849.7 459.3 858.3 459.7 867.2 460.3C873.7 460.6 878.9 461.9 879.1 465.4C879.1 465.5 879 465.5 878.9 465.6C883.7 467.3 891.7 468.6 888.7 472.3C886.2 475.4 878.9 474.8 873.3 474.2C852.4 471.9 840.3 476.7 830.5 483.7C830.5 483.8 830.5 483.9 830.5 484C839.6 489.8 847.8 486.2 852.3 483.2C855.8 480.9 858 479.7 863.9 479.9C864.1 479.9 864.2 479.9 864.4 480C864.3 479.9 864.2 479.8 864.2 479.7C886.5 480.1 908 478.1 930 477.5C930 477.6 930 477.7 930 477.7C935 476.8 940.4 476.8 946.1 477.2C946.2 477.2 946.4 477.1 946.5 477.1C946.4 477.1 946.3 477 946.1 477C943.7 475.3 941.7 473.5 939.1 471.9C935.5 469.5 936.4 467.3 942.5 468.3C964.1 471.7 983.4 467.1 1004.3 468.1C1022.6 469 1028.7 472.2 1021.6 479.9C1019.5 482.2 1015.8 484.3 1023.3 486C1020.7 486.1 1018 486.1 1015.4 486.1C1017 486.5 1019.6 486.8 1023.3 486.4C1023.6 486.3 1023.8 486.3 1024.1 486.2C1023.8 486.2 1023.6 486.2 1023.3 486.1C1036 481.4 1051.2 483.4 1066.2 484.1C1066.1 484.2 1065.9 484.3 1065.8 484.5C1065.9 484.5 1066.1 484.4 1066.2 484.4C1081 485.6 1096.4 484.5 1111.3 486.8C1118.5 487.8 1126.1 486.9 1130.1 484.1C1139.8 477 1155.1 478 1170.3 478.5C1181.2 478.8 1193.2 481.3 1200.6 475.5C1202.1 474.2 1206.2 474.6 1209.5 475.2C1225.9 478.2 1242.7 477.8 1259.4 479.3C1259.5 479.3 1259.5 479.3 1259.6 479.4C1259.6 479.3 1259.7 479.2 1259.7 479.2C1264.5 479.4 1268 480.3 1269.3 482.6C1269.2 482.7 1269.1 482.7 1269.1 482.8C1270 482.8 1271.1 482.9 1272 483C1272.7 483.1 1273.2 483.2 1273.9 483.2C1273.3 483.1 1272.8 482.9 1272.2 482.8C1305.9 487 1337.1 481.5 1368.8 479.9ZM1288.7 470.5C1289.3 469.5 1291.2 469 1293.6 469.2C1296.2 469.4 1297.7 470.1 1297 471.4C1296.4 472.4 1294.4 472.9 1291.6 472.6C1289.6 472.5 1288.1 471.8 1288.7 470.5Z" fill="#15314B"/>
<path d="M767.6 488C763 488.3 756.5 490.8 754 487.2C752.3 484.5 759 483.3 764.1 482.6C768.5 482.1 773.5 482.2 778.3 482.1C782.2 482 785.9 481.8 788 480.1C805.7 466.3 812.4 464.7 848 465.4C858.2 465.6 868.5 465.6 878.5 465.6C878.6 465.6 878.7 465.7 878.8 465.7C878.9 465.6 878.9 465.6 879 465.5C878.7 462 873.7 460.7 867.1 460.4C858.2 459.9 849.6 459.6 841 458.9C836.5 458.6 830.6 460.6 827.9 457.7C825.6 455.3 831.1 454.1 834.2 452.4C829.9 451.9 824.3 452.9 822.3 450C822.1 449.6 824.7 448.3 826.2 448.1C833.1 447.6 834 449.8 834.3 452.2C843.4 452.2 844.5 448.6 848 446C848.1 445.9 848.2 445.9 848.3 445.8C817.1 443.4 787.2 446.7 756.2 446.2C756.2 446.2 756.2 446.2 756.1 446.2C720.5 445.8 689.9 452.5 657.4 457.5C661.2 458.2 665.1 458.5 668.1 459.6C674.2 461.6 680.6 464.2 679.2 467.6C677.7 471.3 668.4 472.4 662.3 471.3C644.3 468.5 627.2 470.8 609.8 470.5C609.7 470.5 609.6 470.5 609.4 470.5C577.8 469.7 547.6 472.1 517.6 475.1C512.8 475.5 509.4 477.2 507.1 479C505.1 480.7 507.8 482.7 510.9 481.8C525.6 477.7 540.3 482.6 554.8 482.9C577.8 483.6 601 484.9 623.6 487.3C637.8 488.9 647.5 487.6 650.5 482C653.4 477 659.3 477.4 667.5 477.4C676.2 477.3 682.2 478.3 686 482.2C687.6 483.7 690 485.3 693.6 484.3C704.7 480.9 708.8 486.2 714.8 488.7C720.4 491.1 722.7 494 716.6 496.5C708.8 499.7 706.1 496.6 702.1 493.9C695.9 489.3 687.3 490.7 679 492C671.1 493.3 664.7 495.4 666.1 500C667.4 504.5 673.3 507.5 683.4 507.9C694.8 508.2 705.9 510.2 717.2 508.3C724.5 507.2 727.1 509.3 723 511.8C713.2 517.6 723 517.7 731.6 518C750.2 519 766 513.2 784.9 514.5C788.1 514.7 790.4 512.6 788.3 511.2C777.4 503.8 789.3 504.2 799.2 503.7C804 503.5 809.3 502.7 809 500C808.8 497.4 803.1 497.4 799.2 496.8C787.7 495.5 778.4 493.1 778.2 486.6C778 486.6 777.9 486.6 777.7 486.6C774.7 487 771.2 487.8 767.6 488ZM808.8 463.4C808.4 465 803.5 464.2 800.3 463.9C800.2 463.9 800 463.9 799.9 463.9C787.1 466.6 773.1 466.5 759 466C752.2 465.7 749.4 464.5 752 461.3C751.1 455.2 758.3 453.6 770.4 453.5C781.7 453.4 792 454.7 802 456.8C808.1 458.1 809.3 461 808.8 463.4Z" fill="#25354A"/>
<path d="M1533.8 535.9C1533.8 535.8 1533.7 535.7 1533.6 535.5C1510.1 536.3 1490.9 527.5 1468.1 526.6C1464 526.5 1461.2 524.7 1461.8 522.8C1462.3 520.7 1466.1 519.7 1469.9 520.2C1489.5 522.3 1498.1 514.9 1510.7 511.2C1513.8 510.2 1517 509.1 1515.3 506.9C1513.3 504.5 1508.8 504.6 1504.2 504.6C1494.6 504.7 1485 504.7 1475.7 506.2C1471.9 506.7 1466.3 506.2 1465.6 503.6C1464.9 501.3 1469.9 500.9 1473.5 500.9C1482.1 501.1 1488.7 499.2 1495.8 497.6C1506.8 495.2 1517.6 493.3 1520.6 502.2C1521.4 504.7 1524.7 506.6 1530.5 506.7C1537 506.9 1542 505.7 1544.6 503C1552.5 494.7 1550.2 491.9 1531.6 487C1527.2 485.9 1523.2 484.5 1520.7 482.5C1520.6 482.5 1520.6 482.4 1520.5 482.4C1512.8 481.1 1504.5 480.5 1497 479.4C1475.7 476.1 1454.6 479.9 1433.4 477.2C1433.3 477.2 1433.3 477.2 1433.2 477.2C1422.6 478.3 1412.1 481.3 1400.8 479.6C1389.1 477.9 1379.8 479.4 1369 479.9C1337.3 481.8 1306.1 487.2 1272.4 482.7C1273 482.8 1273.5 483 1274.1 483.1C1279.7 484.6 1285.4 486.1 1291 487.6C1296.1 488.9 1300.3 490.6 1299.4 493.5C1298.6 496.6 1293.3 496.8 1287.6 496.9C1263.8 497.7 1264 497.8 1262.8 508.8C1262.9 508.8 1262.9 508.9 1263 508.9C1270.6 509.3 1277.8 509.8 1285.5 510.2C1287.6 509.8 1289.9 509.4 1292 509C1300.7 503.2 1321.4 504.1 1329.2 511.3C1334.5 516.2 1339.2 516.7 1347.4 513.9C1348.5 513.5 1349.5 513 1350.8 512.6C1344.6 511.6 1345.4 508.1 1341.1 506.7C1332.3 503.7 1335.9 502.4 1343.1 501.3C1365.2 497.9 1388.8 497.2 1412.1 496.4C1423.1 496.1 1433 499.4 1439.7 503.8C1445.3 507.4 1440.5 510.3 1435.9 512.9C1441.7 513.3 1447.3 513 1453 512.4C1456.5 512 1461.1 511.4 1462.8 513.5C1465.3 516.2 1460.1 516.6 1456.2 517.3C1445.3 519.3 1435.1 521.9 1430.4 527.1C1426 532.1 1425.9 538.2 1413.6 541.3C1409.2 542.4 1412 545.2 1413.1 547.5C1417 555.2 1431.7 555.3 1443.1 558.1C1456.6 561.4 1466.7 560.2 1476 555.7C1485.2 551.1 1497 548 1505.4 542.9C1509.8 540.3 1518 538.8 1526.9 539.3C1527.4 539.3 1527.8 539.4 1528.2 539.4H1528.3C1531.1 538.8 1533.1 537.6 1533.8 535.9Z" fill="#303B4F"/>
<path d="M600 453.4C595.2 451.5 586.2 448.9 594 446.3C606.1 442.2 615.3 436.2 630.8 434.5C633.8 434.2 638.2 434.4 636.3 432.1C635 430.4 631.3 429.9 628 430.5C622.4 431.3 617.1 432.4 610.7 431.6C602.4 430.6 604.2 429 608.4 427.1C605.6 427.6 602.7 428.1 599.9 428.6C581.1 431.2 560.9 430.5 541.5 430.1C536.7 430 532 431 527.2 431.1C506.6 431.5 486.5 433.4 466.2 434.9C449.6 436.2 432.1 435.4 415.2 436C404.7 436.3 393.8 437 385.9 440.7C384.5 441.4 385 442.8 387.4 443.2C399 445.3 410.8 446 422 443.9C433 441.7 444.4 441.3 456.5 442C459.9 442.3 468.2 441.3 466.1 443.9C463.2 447.2 475.1 451.1 465 453.2C449.6 456.5 433.2 459.8 415.7 456.7C397.6 453.5 383.9 456.8 369.4 459.3C370.4 459.4 371.5 459.4 372.6 459.6C372.3 459.7 372 459.8 371.7 459.9C372.1 459.9 372.5 459.8 372.8 459.6C381.7 461.2 396.3 458 398.7 464.6C400.2 468.5 402.4 468.3 408.3 468.3C437.8 468 467.5 469.1 494.4 463.2C497.7 462.4 502.9 462.9 507.2 463.2C518 464.1 528.9 463.4 539.4 464.3C561.9 466 582.2 461.9 604 462.6C604.1 462.6 604.2 462.6 604.3 462.6C613.7 459.1 607.9 456.3 600 453.4Z" fill="#456987"/>
<path d="M286.1 531.4C291.1 529.5 297.5 528.6 303.7 531.1C309.8 533.5 318.2 535.6 313.7 540.3C313.7 540.3 313.7 540.3 313.6 540.3C313.7 540.3 313.8 540.3 313.9 540.3V540.4C322.1 539.2 330.4 537.7 338.9 536.6C342.6 536.2 347.7 535.6 347.4 533.9C346.6 527.2 357.3 526.9 367.1 525.8C373.3 525 378.6 523.4 382 520.8C385 518.6 389.4 516.4 394.8 517.3C411.6 520 422.1 513.6 436.6 513.2C441 513.1 444.5 511.6 443.2 509.1C442 506.6 437.4 506.1 432.8 506.4C426.5 506.6 420.8 507.6 414.9 508.8C401.8 511.4 389.1 518.3 372.6 509.9C370.9 509.1 366.4 509.4 363.1 509.1C347.2 508.1 332.4 508.1 318.7 512.2C311.1 514.4 301.8 515.9 291.4 515.3C278.1 514.4 267.1 516.3 260.7 521.9C257.9 524.2 255.5 525.6 250.4 522.3C243.2 517.5 232.1 518.6 222.4 517.9C217.9 517.7 212.5 519 212.2 521.5C211.8 524.5 218.3 523.6 221.8 524.3C237 528 255.7 527.9 268.5 534.3C274.9 533.8 280.9 533.3 286.1 531.4Z" fill="#2B3146"/>
<path d="M571.2 486.9C562.2 485.3 553.8 485 548.8 489.4C557.8 496.6 543.7 498 536 498.5C519.3 499.2 501.8 498.2 484.6 497.8C480.9 497.7 476 497.4 475.8 495.2C475.6 492.9 480.8 493.1 484.3 492.9C506 491.7 527.5 490.6 548.8 489.4C510.1 484 476.6 489.7 444.1 496.8C440.3 497.5 435 498.1 437.5 500.9C439.5 502.9 444.1 502.2 447.8 502.1C459.3 501.4 468.4 501.7 476.5 507.7C481.9 511.6 497.2 512.2 505.2 509.9C526.5 503.9 553.1 503.4 573.2 496.6C576.8 495.4 583.1 495.3 582.2 492.3C581.1 489.7 576.6 488 571.2 486.9Z" fill="#5A545F"/>
<path d="M1439.3 504.1C1432.5 499.6 1422.7 496.3 1411.7 496.7C1388.3 497.5 1364.8 498.2 1342.7 501.6C1335.4 502.7 1331.9 504 1340.7 507C1345.1 508.5 1344.2 511.9 1350.4 512.9C1352.4 512.9 1354.5 512.9 1356.5 513C1356.6 513 1356.6 513 1356.7 513H1356.8C1367.1 509.9 1373.7 516.6 1383.6 516.2C1400.8 515.5 1419.2 517 1435.3 513.4C1435.4 513.3 1435.5 513.3 1435.6 513.2C1440.2 510.5 1444.9 507.7 1439.3 504.1Z" fill="#16273C"/>
<path d="M873.2 474.2C878.8 474.9 886.3 475.4 888.6 472.3C891.5 468.6 883.6 467.4 878.8 465.6C878.7 465.6 878.6 465.5 878.5 465.5C868.5 465.5 858.2 465.5 848 465.3C812.4 464.6 805.7 466.2 788 480C785.7 481.6 782.1 481.9 778.3 482C773.5 482.1 768.5 482 764.1 482.5C759 483 752.2 484.4 754 487.1C756.6 490.7 763 488.2 767.6 487.9C771.3 487.6 774.8 487 778.2 486.7C778.4 486.7 778.5 486.7 778.7 486.7C796.2 486.3 814.7 488.2 830.4 483.9C830.5 483.9 830.5 483.8 830.6 483.8C840.2 476.6 852.4 471.9 873.2 474.2Z" fill="#072743"/>
<path d="M1021.5 479.8C1028.7 472 1022.5 468.9 1004.2 468C983.3 467 963.8 471.6 942.4 468.2C936.3 467.3 935.4 469.4 939 471.8C941.6 473.5 943.6 475.2 946 476.9C946.1 476.9 946.2 477 946.4 477C951.8 479.3 948.4 485.2 958.8 484.7C977.7 483.9 996.6 485.9 1015.5 486C1018.1 486 1020.8 486 1023.4 485.9C1015.8 484.1 1019.5 482.1 1021.5 479.8Z" fill="#26384F"/>
<path d="M308.3 475.5C305.3 475.3 302.1 475.1 299 474.8C298.9 474.8 298.8 474.8 298.6 474.8C253.5 476.8 207.4 476.4 163 480.7C149.9 481.9 135.2 484.6 121.5 481C104.2 476.5 97.0003 480.2 91.8003 486.7C95.0003 486.9 97.9003 487 101.2 487.4C101.3 487.4 101.4 487.4 101.6 487.3C106.3 487.7 111.4 488.9 115.8 488.5C163.7 484.9 213.6 486 259.9 479.5C261.7 479.3 264.3 479.5 266.2 479.8C283.2 482.8 296.9 480.5 308.7 475.4C308.6 475.4 308.5 475.4 308.3 475.4C308.4 475.5 308.4 475.5 308.3 475.5Z" fill="#17324D"/>
<path d="M369.6 459.6C369.5 459.6 369.4 459.6 369.4 459.6C327 457.2 324 457.9 309.2 474.8C308.9 475.1 308.7 475.2 308.4 475.5H308.5C308.6 475.5 308.8 475.5 308.9 475.5C333.2 476.4 355.6 474.3 376.3 468.3C368.8 465.8 360.3 467.8 353.9 465.1C358.5 462.3 366.4 462 371.9 460.1C372.2 460 372.6 459.9 372.8 459.8C371.6 459.9 370.6 459.8 369.6 459.6Z" fill="#17324D"/>
<path d="M1347.2 514.1C1339.1 516.8 1334.3 516.4 1329 511.5C1321.1 504.3 1300.5 503.4 1291.8 509.2C1292.9 509.3 1294.2 509.3 1295 509.5C1302.2 510.5 1310.9 510.5 1313.7 514.5C1314.6 515.7 1310.7 516.6 1308 516.2C1299.5 515.1 1287 517.5 1285.2 510.4C1277.6 509.9 1270.4 509.4 1262.7 509.1C1262.6 509.1 1262.4 509.1 1262.3 509.1C1260.4 508 1258.2 506.9 1256.1 505.9C1256 505.9 1255.9 505.9 1255.8 505.9C1243.5 511.8 1239 511.9 1233.4 506.1C1233.3 506.1 1233.3 506 1233.2 506H1233.3C1233.3 506 1233.3 506 1233.2 505.9H1233.3L1233.7 505.7C1233.6 505.7 1233.6 505.7 1233.5 505.7C1232.2 506.1 1230.8 506.7 1229.4 507.2V507.3C1232.7 514 1244.7 514.4 1254.8 514.3C1269.2 514.2 1283.9 514.6 1295.9 517.7C1318.7 523.4 1338.7 520.3 1359.4 518.1C1354.4 517.5 1348.3 517.5 1347.2 514.1Z" fill="#475368"/>
<path d="M909.8 482.4C909.7 482.4 909.5 482.5 909.4 482.5C909.5 482.5 909.7 482.5 909.8 482.4C901 487.1 889.8 483.4 879.7 483.5C876.5 483.4 873.4 483.3 870.4 483.2C870.3 483.2 870.3 483.2 870.2 483.2C869.2 488.1 857.1 487.7 852.4 490.9C860.1 492 867.2 490.9 874.5 490.6C886.3 490.1 895.4 491.7 901.2 496.9C901.3 496.9 901.3 496.9 901.4 496.9C925.4 495.8 935.6 489.8 928.9 480.3C928.8 480.3 928.7 480.2 928.6 480.2C921.7 479.9 915.5 480.7 909.8 482.4Z" fill="#66595D"/>
<path d="M91.7999 486.8C74.1999 487 60.4999 492.7 42.0999 492.6C35.0999 492.6 21.1999 492.8 18.4999 498.6C18.4999 498.7 18.3999 498.7 18.3999 498.8C37.0999 498.9 55.4999 496.1 74.5999 498.9C77.6999 499.3 81.9999 498.8 82.7999 497.3C85.6999 492.4 96.0999 491 102 487.2C101.8 487.2 101.6 487.2 101.4 487.2C97.9999 487.1 94.9999 487 91.7999 486.8Z" fill="#1E364E"/>
<path d="M1229 493.6C1237.4 493.9 1246 494.1 1246.5 488.8C1246.8 482.9 1239.9 480 1228.6 480C1213.9 479.1 1210.4 479.6 1209.9 482.4C1208.6 488 1216.8 493 1229 493.6Z" fill="#4E4E59"/>
<path d="M1233.7 505.7C1233.8 505.7 1233.9 505.7 1233.9 505.6C1236.5 504.7 1242 504.8 1240.7 502.3C1239.6 500.3 1235.8 499.5 1232 499.1C1225.5 498.6 1218.2 498.4 1213.6 500.3C1206.8 503 1199.5 503.8 1190.2 502.8C1198.3 513.4 1208.8 514.9 1224.4 508.6C1225.8 508.1 1228 507.5 1229.6 507C1230.9 506.6 1232.3 506.2 1233.7 505.7Z" fill="#303B4F"/>
<path d="M1169.7 499.3C1165.2 497.3 1160.7 497.8 1156.5 499.1C1152.9 500.1 1149.3 501.2 1145.7 501.9C1140.8 503 1132.3 503.2 1134 506.5C1135.2 509.1 1143.4 507.8 1149.2 508.8C1153.7 508.8 1158.9 508.9 1164.4 508.7C1169.4 508.5 1173.7 507.6 1174.2 504.9C1174.9 502.5 1173.2 500.7 1169.7 499.3Z" fill="#5C6377"/>
<path d="M874.7 490.6C867.3 490.8 860.1 492.1 852.6 490.9C851.7 490.9 850.8 491 849.9 490.9C851 494.6 856.7 495.7 863.4 495.8C868.6 495.9 873.7 495.6 878.5 497.1C878.3 497.1 878.1 497.1 877.9 497.2C878 497.2 878.1 497.2 878.2 497.2C886 497.2 893.7 497.1 901.5 497.1C901.4 497.1 901.4 497 901.3 497C895.5 491.7 886.4 489.9 874.7 490.6Z" fill="#9B7A6B"/>
<path d="M864.1 479.8C864.2 479.9 864.2 480 864.3 480.1C865.2 481.6 867.3 482.6 870.4 483.2C870.5 483.2 870.5 483.2 870.6 483.2C873.5 483.3 876.7 483.4 879.9 483.5C888.5 479.2 899.5 482.6 909.5 482.5C909.6 482.5 909.8 482.4 909.9 482.4C915.5 480.7 921.8 479.9 928.8 480.3C929 480.3 929.2 480.3 929.3 480.3C929.6 479.5 929.7 478.6 929.8 477.8C929.8 477.7 929.8 477.6 929.8 477.6C907.9 478.1 886.4 480.2 864.1 479.8Z" fill="#26384F"/>
<path d="M1023.4 486C1023.7 486 1023.9 486 1024.2 486.1C1029.8 486.5 1035.6 487.2 1041.1 487.1C1050 487.1 1060.9 489.6 1066 484.5C1066.1 484.4 1066.3 484.3 1066.4 484.1C1051.3 483.3 1035.9 481.3 1023.4 486Z" fill="#26384F"/>
<path d="M863.3 495.8C856.4 495.7 850.9 494.7 849.8 490.9C844.6 490.6 839.3 491 839.5 493.6C839.3 496.8 845.9 496.4 850.3 496.7C859.4 497.1 868.8 498.7 877.9 497.2C878.1 497.2 878.3 497.2 878.5 497.1C873.6 495.5 868.6 495.9 863.3 495.8Z" fill="#66595D"/>
<path d="M1233.3 506C1233.4 506 1233.4 506.1 1233.5 506.1C1239 511.8 1243.6 511.8 1255.9 505.9C1256 505.9 1256.1 505.8 1256.2 505.8C1248.7 505.8 1241.1 505.9 1233.3 506C1233.4 505.9 1233.3 505.9 1233.3 506C1233.3 505.9 1233.3 505.9 1233.3 506Z" fill="#606C80"/>
<path d="M1259.6 478.9C1259.6 479 1259.5 479.1 1259.5 479.1C1258.9 480.8 1256.4 482.6 1261 484C1265.3 485.2 1267.2 483.8 1268.9 482.4C1269 482.3 1269.1 482.3 1269.1 482.2C1267.9 480.1 1264.3 479.2 1259.6 478.9Z" fill="#4E4E59"/>
<path d="M235.6 460.7C235.6 460.7 235.6 460.6 235.6 460.7C235.5 460.7 235.5 460.7 235.4 460.7H235.3C230.3 463.2 224.2 464.4 216 464.1C196 463.2 176.8 464.8 158.5 467.6C155.5 468 151.9 468.3 151.9 470.1C151.7 471.8 154.8 472.8 157.9 473.4C168.3 475.5 178.4 475.6 189.1 473.8C201.5 471.6 215 470.6 228.1 469.2C228.2 469.2 228.2 469.1 228.3 469.1C232.1 466.7 241.6 465.4 235.6 460.7Z" fill="#17324D"/>
<path d="M651.5 428.3C651.5 428.4 651.5 428.5 651.5 428.6C651.2 431 650.9 433.4 656.2 435.1C666.9 438.6 705.5 435.2 713.2 429.7C705.8 428.1 694.3 437.5 690.4 427.3C690.3 427.3 690.2 427.3 690.1 427.3C677.3 427.3 663.1 423.3 651.5 428.3ZM677.5 431C668.3 433.1 662.7 432 656.9 430.9C662.2 427.9 667.8 428.6 677.5 431Z" fill="#3F506D"/>
<path d="M1086.8 442.1C1075.4 443.8 1064.8 441.3 1058.9 435.6C1045.8 435.5 1034.6 441.9 1022.4 439C998 433.2 975.8 444.3 952.3 437.3C951.2 437.1 948.8 437.3 947.7 437.7C938.4 440.8 927.3 440.1 916.6 440C908.2 439.9 902.1 441 897.6 444.1C898.1 444.1 898.5 444.1 899 444.1C908.3 444.4 917.5 445.1 926.6 444.9C938.3 444.6 947.3 445.3 954.4 450.8C960.6 455.6 969.6 456.5 978.6 452.4C985.1 449.3 993.2 448.7 1003 448.6C1025.2 448.2 1045.5 444.1 1069.5 445.8C1082.6 446.7 1097.3 445.5 1108.7 449C1130.3 455.7 1146.6 454.4 1161.7 446.5C1161.9 446.4 1162.1 446.4 1162.2 446.3C1160.1 444.7 1158 443 1156.2 441.5L1156.1 441.4C1132.8 440 1109.5 438.6 1086.8 442.1Z" fill="#2C3C52"/>
<path d="M1059 435.7C1058.9 435.7 1058.8 435.7 1058.8 435.7C1064.7 441.4 1075.4 443.9 1086.7 442.2C1109.4 438.7 1132.7 440 1156 441.3C1156.1 441.3 1156.1 441.3 1156.2 441.3C1168.1 438.9 1180.8 443.5 1192.6 441.7C1197.4 441 1205 441.2 1204.2 438.2C1203.6 435.6 1196.3 436.1 1191.6 436C1169 435.6 1146.5 435.3 1124.1 434.9C1124 434.9 1123.9 434.9 1123.7 434.9C1101.7 432.4 1081.2 437.9 1059 435.7Z" fill="#15314B"/>
<path d="M631 463.2C633.3 463.4 634.7 462.9 635.3 461.9C635.4 460.8 634.2 459.9 631.9 459.6C629.6 459.3 627.5 459.6 627 460.6C626.2 462 628.2 462.9 631 463.2Z" fill="#25354A"/>
<path d="M1232.7 453.7C1234.3 459.1 1241.5 460.2 1251.3 459.6C1255.2 459.4 1258.6 460.3 1262.1 460.8C1279.8 463.3 1297.5 468.9 1316.5 464C1319.8 463.2 1324.8 463.1 1328.9 463.5C1345.2 465.1 1360.1 464.3 1373 459.9C1379.9 457.6 1387.3 456.5 1396.2 456.8C1400.5 457 1404.7 457.2 1409 457.6C1409.1 457.6 1409.1 457.6 1409.2 457.6C1412.7 456.8 1418.7 456.6 1416.8 453.8C1413.8 450.1 1407.8 447.3 1398.9 446.6C1373.3 444.6 1348.2 441.1 1322.3 440.5C1316.4 440.4 1310.1 439.7 1306.5 442.6C1306.6 442.6 1306.6 442.7 1306.7 442.7C1320.2 443.5 1333.6 444.3 1347 445.2C1350.9 445.4 1355.1 445.7 1356 447.8C1356.9 449.9 1353.1 450.8 1349.9 451.5C1345.6 452.4 1341.1 454.2 1337 454C1318.5 452.9 1303.9 458.1 1286.7 458.7C1277.5 458.9 1267.4 459.9 1261.4 455.5C1256 451.2 1255.8 446.7 1263.9 443.2C1252.5 442.8 1241.3 441.7 1229.8 442.1C1217.9 442.5 1214.5 444.6 1220.4 449.8C1226.1 450 1231.8 450.6 1232.7 453.7Z" fill="#2C3C52"/>
<path d="M1261.6 455.4C1267.4 459.9 1277.7 458.8 1286.9 458.6C1304.1 458.2 1318.6 452.9 1337.2 453.9C1341.3 454.1 1345.8 452.4 1350.1 451.4C1353.4 450.6 1357.2 449.7 1356.2 447.7C1355.3 445.6 1351 445.3 1347.2 445.1C1333.7 444.2 1320.4 443.4 1306.9 442.6C1306.8 442.6 1306.7 442.6 1306.7 442.6C1302.2 442.5 1297.4 442.3 1293.6 443.4L1293.7 443.5C1306.6 444.3 1319.2 444.8 1332.2 445.8C1334.8 445.9 1338.1 446.2 1337.9 447.9C1337.8 448.6 1335.5 449.9 1334.2 449.9C1313.9 449.9 1293.7 450.8 1273.5 448.2C1269 447.7 1268.1 445.8 1267.8 443.9C1267.9 443.9 1268.1 443.9 1268.2 443.9C1268.1 443.8 1267.9 443.8 1267.8 443.7C1266.7 443.6 1265.2 443.5 1264.2 443.3C1255.9 446.6 1256.2 451.1 1261.6 455.4Z" fill="#484857"/>
<path d="M1273.1 447.8C1293.2 450.4 1313.5 449.7 1333.8 449.5C1335.1 449.5 1337.4 448.3 1337.5 447.5C1337.7 445.9 1334.3 445.5 1331.8 445.4C1318.9 444.5 1306.3 443.9 1293.3 443.1H1293.2C1284.7 443.2 1276.2 443.2 1267.8 443.4C1267.7 443.4 1267.5 443.4 1267.4 443.4C1267.7 445.4 1268.7 447.3 1273.1 447.8Z" fill="#6C5C64"/>
<path d="M1210.3 452C1205.6 451.5 1200.8 450.9 1196.1 450.4C1186.6 449.4 1184.3 451.3 1187.1 455.2C1187.2 455.2 1187.3 455.2 1187.4 455.2C1195.7 455.1 1207.1 458.7 1210.3 452Z" fill="#2C3C52"/>
<path d="M1529.4 440.2C1538.7 441 1548.2 442.9 1562.4 440.7C1548.6 438.3 1539 438.5 1529.4 440.2Z" fill="#4F5168"/>
<path d="M2001.3 456.5C1995.4 456.2 1986.1 454.1 1984.5 457.5C1983 460.8 1992.1 459.8 1996.7 460.8C2002.5 460.5 2011.7 463 2013.5 459.6C2015.1 456.4 2006.2 456.9 2001.3 456.5Z" fill="#3E435E"/>
<path d="M1291.5 472.7C1294.4 472.9 1296.3 472.5 1296.9 471.5C1297.5 470.4 1296 469.6 1293.5 469.3C1290.9 469.2 1289.1 469.5 1288.6 470.6C1288.1 471.8 1289.6 472.5 1291.5 472.7Z" fill="#2C3C52"/>
<path d="M1373.1 460.1C1381.8 460.2 1390.2 460.2 1396.3 457C1387.3 456.6 1379.9 457.8 1373.1 460.1Z" fill="#1E3855"/>
<path d="M802 457C792 454.9 781.6 453.6 770.4 453.7C758.3 453.8 751.1 455.3 752 461.5C768.1 463.1 784.7 458.9 800.3 464C800.2 464 800 464 799.8 464.1C799.9 464.1 800.1 464.1 800.2 464.1C803.4 464.3 808.3 465.1 808.7 463.6C809.3 461 808.1 458.1 802 457Z" fill="#4B4552"/>
<path d="M752 461.4C749.3 464.6 752.2 465.8 759 466.1C773.1 466.6 787.1 466.9 799.9 464C800 464 800.2 464 800.4 463.9C784.7 458.7 768 462.9 752 461.4Z" fill="#D4A379"/>
<path d="M826.4 448.2C824.8 448.3 822.3 449.5 822.5 450.1C824.4 453.1 830.2 452 834.4 452.5C834.5 452.5 834.5 452.5 834.6 452.5C834.6 452.5 834.6 452.5 834.6 452.4C834 449.9 833.2 447.6 826.4 448.2Z" fill="#2B4462"/>
<path d="M475.8 495.2C476 497.5 481 497.7 484.6 497.8C501.9 498.2 519.4 499.3 536 498.5C543.6 498.2 557.7 496.6 548.8 489.4C527.4 490.5 505.9 491.7 484.3 492.9C480.8 493.2 475.6 493 475.8 495.2Z" fill="#85706F"/>
<path d="M909.8 482.5C909.7 482.5 909.5 482.5 909.4 482.5C899.5 482.7 888.4 479.4 879.8 483.5C889.9 483.4 901.1 487 909.8 482.5Z" fill="#374256"/>
<path d="M656.8 431C662.6 432.1 668.2 433.2 677.4 431.1C667.8 428.6 662.2 427.9 656.8 431Z" fill="#004D8A"/>
</g>
</g>
<defs>
<filter id="filter0_f_499_194" x="-39.3999" y="401" width="2093.1" height="201.4" filterUnits="userSpaceOnUse" color-interpolation-filters="sRGB">
<feFlood flood-opacity="0" result="BackgroundImageFix"/>
<feBlend mode="normal" in="SourceGraphic" in2="BackgroundImageFix" result="shape"/>
<feGaussianBlur stdDeviation="3" result="effect1_foregroundBlur_499_194"/>
</filter>
<linearGradient id="paint0_linear_499_194" x1="1006.99" y1="577.603" x2="1006.99" y2="340.032" gradientUnits="userSpaceOnUse">
<stop offset="0.0157151" stop-color="#3AA4DF" stop-opacity="0.57"/>
<stop offset="1" stop-color="#009AF9" stop-opacity="0"/>
</linearGradient>
<clipPath id="clip0_499_194">
<rect width="2016" height="508" fill="white"/>
</clipPath>
</defs>
</svg>
